<svg xmlns="http://www.w3.org/2000/svg" xmlns:xlink="http://www.w3.org/1999/xlink" width="500" zoomAndPan="magnify" viewBox="0 0 375 374.999991" height="500" preserveAspectRatio="xMidYMid meet" version="1.0"><defs><g/><clipPath id="c12b1a8f50"><path d="M 233 100 L 262.5 100 L 262.5 116 L 233 116 Z M 233 100 " clip-rule="nonzero"/></clipPath></defs><path fill="#473500" d="M 255.910156 177.492188 C 255.910156 190.050781 226.316406 200.242188 189.800781 200.242188 C 153.289062 200.242188 123.691406 190.050781 123.691406 177.492188 C 123.691406 164.921875 153.289062 154.746094 189.800781 154.746094 C 226.316406 154.746094 255.910156 164.921875 255.910156 177.492188 " fill-opacity="1" fill-rule="nonzero"/><path stroke-linecap="round" transform="matrix(0.0759878, 0, 0, -0.0758294, 27.317625, 301.217383)" fill="none" stroke-linejoin="round" d="M 3008.277705 1631.62553 C 3008.277705 1466.009124 2618.823956 1331.609993 2138.278333 1331.609993 C 1657.784116 1331.609993 1268.278961 1466.009124 1268.278961 1631.62553 C 1268.278961 1797.396477 1657.784116 1931.589553 2138.278333 1931.589553 C 2618.823956 1931.589553 3008.277705 1797.396477 3008.277705 1631.62553 Z M 3008.277705 1631.62553 " stroke="#ffffff" stroke-width="31.837" stroke-opacity="1" stroke-miterlimit="10"/><path fill="#473500" d="M 248.3125 150.605469 C 248.3125 160.425781 222.121094 168.394531 189.800781 168.394531 C 157.484375 168.394531 131.292969 160.425781 131.292969 150.605469 C 131.292969 140.777344 157.484375 132.816406 189.800781 132.816406 C 222.121094 132.816406 248.3125 140.777344 248.3125 150.605469 " fill-opacity="1" fill-rule="nonzero"/><path stroke-linecap="round" transform="matrix(0.0759878, 0, 0, -0.0758294, 27.317625, 301.217383)" fill="none" stroke-linejoin="round" d="M 2908.292549 1986.194029 C 2908.292549 1856.688696 2563.613644 1751.600837 2138.278333 1751.600837 C 1712.994428 1751.600837 1368.315523 1856.688696 1368.315523 1986.194029 C 1368.315523 2115.802389 1712.994428 2220.787222 2138.278333 2220.787222 C 2563.613644 2220.787222 2908.292549 2115.802389 2908.292549 1986.194029 Z M 2908.292549 1986.194029 " stroke="#ffffff" stroke-width="31.837" stroke-opacity="1" stroke-miterlimit="10"/><path fill="#473500" d="M 237.195312 126.878906 C 237.195312 135.984375 215.980469 143.371094 189.800781 143.371094 C 163.625 143.371094 142.402344 135.984375 142.402344 126.878906 C 142.402344 117.761719 163.625 110.386719 189.800781 110.386719 C 215.980469 110.386719 237.195312 117.761719 237.195312 126.878906 " fill-opacity="1" fill-rule="nonzero"/><path stroke-linecap="round" transform="matrix(0.0759878, 0, 0, -0.0758294, 27.317625, 301.217383)" fill="none" stroke-linejoin="round" d="M 2761.990362 2299.08798 C 2761.990362 2179.009646 2482.803019 2081.597321 2138.278333 2081.597321 C 1793.805053 2081.597321 1514.514897 2179.009646 1514.514897 2299.08798 C 1514.514897 2419.320855 1793.805053 2516.578639 2138.278333 2516.578639 C 2482.803019 2516.578639 2761.990362 2419.320855 2761.990362 2299.08798 Z M 2761.990362 2299.08798 " stroke="#ffffff" stroke-width="31.837" stroke-opacity="1" stroke-miterlimit="10"/><path fill="#473500" d="M 233.457031 100.90625 C 233.457031 109.277344 213.914062 116.074219 189.800781 116.074219 C 165.691406 116.074219 146.148438 109.277344 146.148438 100.90625 C 146.148438 92.527344 165.691406 85.742188 189.800781 85.742188 C 213.914062 85.742188 233.457031 92.527344 233.457031 100.90625 " fill-opacity="1" fill-rule="nonzero"/><path stroke-linecap="round" transform="matrix(0.0759878, 0, 0, -0.0758294, 27.317625, 301.217383)" fill="none" stroke-linejoin="round" d="M 2712.794581 2641.602283 C 2712.794581 2531.208517 2455.609113 2441.574754 2138.278333 2441.574754 C 1820.998959 2441.574754 1563.813491 2531.208517 1563.813491 2641.602283 C 1563.813491 2752.099077 1820.998959 2841.578299 2138.278333 2841.578299 C 2455.609113 2841.578299 2712.794581 2752.099077 2712.794581 2641.602283 Z M 2712.794581 2641.602283 " stroke="#ffffff" stroke-width="31.837" stroke-opacity="1" stroke-miterlimit="10"/><path stroke-linecap="round" transform="matrix(0.0759878, 0, 0, -0.0758294, 27.317625, 301.217383)" fill-opacity="1" fill="#473500" fill-rule="nonzero" stroke-linejoin="round" d="M 2120.49177 2615.175777 C 2109.902083 2615.021237 2099.10677 2614.918209 2088.311458 2614.918209 C 1887.210209 2614.918209 1724.20099 2650.411119 1724.20099 2694.0947 C 1724.20099 2695.021945 1724.20099 2695.897678 1724.406615 2696.824923 " stroke="#ffffff" stroke-width="15.954001" stroke-opacity="1" stroke-miterlimit="10"/><path stroke-linecap="round" transform="matrix(0.0759878, 0, 0, -0.0758294, 27.317625, 301.217383)" fill-opacity="1" fill="#473500" fill-rule="nonzero" stroke-linejoin="round" d="M 2060.500677 2275.185643 C 2049.910989 2274.979589 2039.115677 2274.876561 2028.320364 2274.876561 C 1827.219115 2274.876561 1664.209897 2310.420984 1664.209897 2354.104565 C 1664.209897 2354.980297 1664.209897 2355.907543 1664.415522 2356.783275 " stroke="#ffffff" stroke-width="15.954001" stroke-opacity="1" stroke-miterlimit="10"/><path stroke-linecap="round" transform="matrix(0.0759878, 0, 0, -0.0758294, 27.317625, 301.217383)" fill-opacity="1" fill="#473500" fill-rule="nonzero" stroke-linejoin="round" d="M 1850.506146 1655.218785 C 1839.916459 1655.01273 1829.121146 1654.909703 1818.274428 1654.909703 C 1617.224584 1654.909703 1454.215366 1690.402612 1454.215366 1734.086193 C 1454.215366 1735.013439 1454.215366 1735.889171 1454.420991 1736.816417 " stroke="#ffffff" stroke-width="15.954001" stroke-opacity="1" stroke-miterlimit="10"/><path fill="#473500" d="M 129.339844 168.660156 C 133.648438 170.265625 137.972656 177.28125 136.855469 180.261719 C 135.738281 183.242188 128.09375 185.085938 123.785156 183.476562 C 119.46875 181.863281 113.585938 175.039062 114.703125 172.058594 C 115.820312 169.078125 125.023438 167.042969 129.339844 168.660156 " fill-opacity="1" fill-rule="nonzero"/><path stroke-linecap="round" transform="matrix(0.0759878, 0, 0, -0.0758294, 27.317625, 301.217383)" fill="none" stroke-linejoin="round" d="M 1342.612398 1748.097908 C 1399.313491 1726.874281 1456.22021 1634.407268 1441.518023 1595.102347 C 1426.815835 1555.797427 1326.213804 1531.482981 1269.512711 1552.706608 C 1212.708805 1573.981748 1135.290992 1663.976106 1149.99318 1703.281027 C 1164.695367 1742.585947 1285.808492 1769.424562 1342.612398 1748.097908 Z M 1342.612398 1748.097908 " stroke="#ffffff" stroke-width="22.174999" stroke-opacity="1" stroke-miterlimit="10"/><path fill="#473500" d="M 125.296875 185.015625 C 128.382812 181.605469 136.511719 180.171875 138.875 182.308594 C 141.246094 184.449219 140.144531 192.210938 137.058594 195.625 C 133.972656 199.039062 125.410156 202.722656 123.039062 200.585938 C 120.675781 198.453125 122.210938 188.429688 125.296875 185.015625 " fill-opacity="1" fill-rule="nonzero"/><path stroke-linecap="round" transform="matrix(0.0759878, 0, 0, -0.0758294, 27.317625, 301.217383)" fill="none" stroke-linejoin="round" d="M 1289.406929 1532.410227 C 1330.017867 1577.38165 1436.994273 1596.287162 1468.095054 1568.109191 C 1499.298647 1539.879707 1484.802085 1437.522072 1444.191148 1392.499136 C 1403.58021 1347.4762 1290.897711 1298.898821 1259.694117 1327.076792 C 1228.593336 1355.203248 1248.795992 1487.387291 1289.406929 1532.410227 Z M 1289.406929 1532.410227 " stroke="#ffffff" stroke-width="22.174999" stroke-opacity="1" stroke-miterlimit="10"/><path fill="#473500" d="M 141.367188 195.972656 C 138.3125 192.539062 137.773438 184.320312 140.167969 182.203125 C 142.554688 180.085938 150.175781 182.035156 153.230469 185.472656 C 156.285156 188.914062 158.785156 198.46875 156.390625 200.585938 C 154.003906 202.699219 144.421875 199.417969 141.367188 195.972656 " fill-opacity="1" fill-rule="nonzero"/><path stroke-linecap="round" transform="matrix(0.0759878, 0, 0, -0.0758294, 27.317625, 301.217383)" fill="none" stroke-linejoin="round" d="M 1500.892241 1387.91442 C 1460.692554 1433.194924 1453.598491 1541.579658 1485.110522 1569.50006 C 1516.519741 1597.420462 1616.813334 1571.715147 1657.013022 1526.383129 C 1697.212709 1480.999598 1730.112709 1354.997194 1698.600678 1327.076792 C 1667.191459 1299.207903 1541.091928 1342.479375 1500.892241 1387.91442 Z M 1500.892241 1387.91442 " stroke="#ffffff" stroke-width="22.174999" stroke-opacity="1" stroke-miterlimit="10"/><path fill="#473500" d="M 149.398438 168.660156 C 145.082031 170.265625 140.761719 177.28125 141.882812 180.261719 C 143 183.242188 150.644531 185.085938 154.953125 183.476562 C 159.269531 181.863281 164.613281 175.179688 163.496094 172.195312 C 162.378906 169.214844 153.714844 167.042969 149.398438 168.660156 " fill-opacity="1" fill-rule="nonzero"/><path stroke-linecap="round" transform="matrix(0.0759878, 0, 0, -0.0758294, 27.317625, 301.217383)" fill="none" stroke-linejoin="round" d="M 1606.583491 1748.097908 C 1549.779585 1726.874281 1492.924272 1634.407268 1507.677866 1595.102347 C 1522.380054 1555.797427 1622.982084 1531.482981 1679.683178 1552.706608 C 1736.487084 1573.981748 1806.810834 1662.121615 1792.108646 1701.478049 C 1777.406459 1740.782969 1663.387397 1769.424562 1606.583491 1748.097908 Z M 1606.583491 1748.097908 " stroke="#ffffff" stroke-width="22.174999" stroke-opacity="1" stroke-miterlimit="10"/><path fill="#473500" d="M 147.171875 166.523438 C 147.171875 171.117188 142.113281 177.617188 138.914062 177.617188 C 135.722656 177.617188 131.320312 171.117188 131.320312 166.523438 C 131.320312 161.925781 135.8125 153.363281 139.003906 153.363281 C 142.195312 153.363281 147.171875 161.925781 147.171875 166.523438 " fill-opacity="1" fill-rule="nonzero"/><path stroke-linecap="round" transform="matrix(0.0759878, 0, 0, -0.0758294, 27.317625, 301.217383)" fill="none" stroke-linejoin="round" d="M 1577.281928 1776.275878 C 1577.281928 1715.695818 1510.710835 1629.977093 1468.609116 1629.977093 C 1426.61021 1629.977093 1368.675367 1715.695818 1368.675367 1776.275878 C 1368.675367 1836.907452 1427.792554 1949.825388 1469.79146 1949.825388 C 1511.790366 1949.825388 1577.281928 1836.907452 1577.281928 1776.275878 Z M 1577.281928 1776.275878 " stroke="#ffffff" stroke-width="22.174999" stroke-opacity="1" stroke-miterlimit="10"/><path fill="#473500" d="M 145.070312 179.746094 C 145.070312 182.953125 142.460938 185.554688 139.246094 185.554688 C 136.035156 185.554688 133.425781 182.953125 133.425781 179.746094 C 133.425781 176.539062 136.035156 173.945312 139.246094 173.945312 C 142.460938 173.945312 145.070312 176.539062 145.070312 179.746094 " fill-opacity="1" fill-rule="nonzero"/><path stroke-linecap="round" transform="matrix(0.0759878, 0, 0, -0.0758294, 27.317625, 301.217383)" fill="none" stroke-linejoin="round" d="M 1549.625366 1601.90215 C 1549.625366 1559.609438 1515.285991 1525.301343 1472.978647 1525.301343 C 1430.72271 1525.301343 1396.383335 1559.609438 1396.383335 1601.90215 C 1396.383335 1644.194862 1430.72271 1678.39993 1472.978647 1678.39993 C 1515.285991 1678.39993 1549.625366 1644.194862 1549.625366 1601.90215 Z M 1549.625366 1601.90215 " stroke="#ffffff" stroke-width="22.174999" stroke-opacity="1" stroke-miterlimit="10"/><path fill="#473500" d="M 261.648438 111.339844 C 261.648438 111.339844 251.609375 93.589844 234.527344 104.847656 C 234.527344 104.847656 240.964844 120.691406 261.648438 111.339844 " fill-opacity="1" fill-rule="nonzero"/><g clip-path="url(#c12b1a8f50)"><path stroke-linecap="round" transform="matrix(0.0759878, 0, 0, -0.0758294, 27.317625, 301.217383)" fill="none" stroke-linejoin="round" d="M 3083.793486 2504.009306 C 3083.793486 2504.009306 2951.679424 2738.087362 2726.879893 2589.625004 C 2726.879893 2589.625004 2811.597393 2380.685612 3083.793486 2504.009306 Z M 3083.793486 2504.009306 " stroke="#ffffff" stroke-width="22.174999" stroke-opacity="1" stroke-miterlimit="10"/></g><path fill="#473500" d="M 255.753906 77.855469 C 255.753906 77.855469 235.484375 75.359375 234.398438 95.757812 C 234.398438 95.757812 250.996094 100.003906 255.753906 77.855469 " fill-opacity="1" fill-rule="nonzero"/><path stroke-linecap="round" transform="matrix(0.0759878, 0, 0, -0.0758294, 27.317625, 301.217383)" fill="none" stroke-linejoin="round" d="M 3006.221455 2945.584372 C 3006.221455 2945.584372 2739.474424 2978.501598 2725.183487 2709.497283 C 2725.183487 2709.497283 2943.608642 2653.501938 3006.221455 2945.584372 Z M 3006.221455 2945.584372 " stroke="#ffffff" stroke-width="22.174999" stroke-opacity="1" stroke-miterlimit="10"/><g fill="#473500" fill-opacity="1"><g transform="translate(92.755062, 254.859226)"><g><path d="M 4.3125 0.1875 C 2.195312 -1.195312 1.140625 -3.21875 1.140625 -5.875 C 1.140625 -7.351562 1.644531 -8.582031 2.65625 -9.5625 C 3.664062 -10.507812 4.957031 -10.984375 6.53125 -10.984375 C 6.84375 -10.984375 7.132812 -10.953125 7.40625 -10.890625 C 7.675781 -10.828125 7.941406 -10.726562 8.203125 -10.59375 C 8.472656 -10.46875 8.703125 -10.3125 8.890625 -10.125 C 9.210938 -9.875 9.457031 -9.601562 9.625 -9.3125 C 9.800781 -9.03125 9.890625 -8.703125 9.890625 -8.328125 C 9.890625 -8.140625 9.875 -7.96875 9.84375 -7.8125 C 9.8125 -7.65625 9.765625 -7.523438 9.703125 -7.421875 C 9.640625 -7.328125 9.566406 -7.25 9.484375 -7.1875 C 9.410156 -7.125 9.332031 -7.082031 9.25 -7.0625 C 9.175781 -7.050781 9.113281 -7.035156 9.0625 -7.015625 C 9.019531 -7.003906 8.972656 -7 8.921875 -7 C 8.867188 -7 8.84375 -7 8.84375 -7 C 8.6875 -6.875 8.53125 -6.703125 8.375 -6.484375 C 8.25 -6.296875 8.1875 -5.992188 8.1875 -5.578125 C 8.1875 -4.441406 8.503906 -3.59375 9.140625 -3.03125 C 9.828125 -2.425781 10.960938 -2.125 12.546875 -2.125 C 13.648438 -2.125 14.609375 -2.332031 15.421875 -2.75 C 16.179688 -3.15625 16.769531 -3.691406 17.1875 -4.359375 C 17.59375 -4.984375 17.796875 -5.644531 17.796875 -6.34375 C 17.796875 -7.195312 17.554688 -7.9375 17.078125 -8.5625 C 16.515625 -9.257812 15.820312 -9.84375 15 -10.3125 C 14.5625 -10.570312 14.023438 -10.859375 13.390625 -11.171875 C 12.765625 -11.484375 12.054688 -11.8125 11.265625 -12.15625 C 9.304688 -13.039062 7.726562 -13.847656 6.53125 -14.578125 C 5.238281 -15.335938 4.132812 -16.363281 3.21875 -17.65625 C 2.238281 -19.007812 1.75 -20.664062 1.75 -22.625 C 1.75 -24.164062 2.023438 -25.535156 2.578125 -26.734375 C 3.128906 -27.929688 3.957031 -28.925781 5.0625 -29.71875 C 6.101562 -30.476562 7.300781 -31.046875 8.65625 -31.421875 C 10.019531 -31.804688 11.519531 -32 13.15625 -32 C 15.769531 -32 18.054688 -31.445312 20.015625 -30.34375 C 22.191406 -29.101562 23.28125 -27.269531 23.28125 -24.84375 C 23.28125 -23.363281 22.773438 -22.132812 21.765625 -21.15625 C 21.421875 -20.84375 21.039062 -20.582031 20.625 -20.375 C 20.21875 -20.164062 19.789062 -20.003906 19.34375 -19.890625 C 18.90625 -19.785156 18.421875 -19.734375 17.890625 -19.734375 C 16.878906 -19.765625 16.09375 -20.050781 15.53125 -20.59375 C 14.863281 -21.15625 14.53125 -21.753906 14.53125 -22.390625 C 14.53125 -22.859375 14.640625 -23.210938 14.859375 -23.453125 C 15.078125 -23.691406 15.300781 -23.8125 15.53125 -23.8125 L 15.859375 -23.8125 C 16.140625 -23.9375 16.390625 -24.109375 16.609375 -24.328125 C 16.734375 -24.484375 16.796875 -24.75 16.796875 -25.125 C 16.796875 -25.539062 16.722656 -25.890625 16.578125 -26.171875 C 16.441406 -26.453125 16.234375 -26.707031 15.953125 -26.9375 C 15.597656 -27.1875 15.203125 -27.375 14.765625 -27.5 C 14.328125 -27.625 13.804688 -27.6875 13.203125 -27.6875 C 12.347656 -27.6875 11.628906 -27.59375 11.046875 -27.40625 C 10.460938 -27.21875 9.984375 -26.960938 9.609375 -26.640625 C 9.234375 -26.296875 8.957031 -25.925781 8.78125 -25.53125 C 8.601562 -25.132812 8.515625 -24.6875 8.515625 -24.1875 C 8.515625 -23.363281 8.722656 -22.6875 9.140625 -22.15625 C 9.640625 -21.550781 10.488281 -20.914062 11.6875 -20.25 C 12.03125 -20.0625 12.382812 -19.878906 12.75 -19.703125 C 13.113281 -19.535156 13.492188 -19.359375 13.890625 -19.171875 C 14.285156 -18.984375 14.6875 -18.789062 15.09375 -18.59375 C 16.132812 -18.125 17.066406 -17.675781 17.890625 -17.25 C 18.710938 -16.820312 19.4375 -16.40625 20.0625 -16 C 21.394531 -15.144531 22.5 -14.039062 23.375 -12.6875 C 24.320312 -11.226562 24.796875 -9.476562 24.796875 -7.4375 C 24.796875 -5.570312 24.210938 -3.894531 23.046875 -2.40625 C 21.941406 -0.988281 20.441406 0.128906 18.546875 0.953125 C 16.910156 1.671875 15.113281 2.0625 13.15625 2.125 C 12.96875 2.125 12.765625 2.125 12.546875 2.125 C 9.003906 2.125 6.257812 1.476562 4.3125 0.1875 Z M 4.3125 0.1875 "/></g></g></g><g fill="#473500" fill-opacity="1"><g transform="translate(127.924287, 254.859226)"><g><path d="M 6.859375 0.515625 C 6.578125 0.109375 6.4375 -0.363281 6.4375 -0.90625 L 6.4375 -1 C 6.4375 -1 6.4375 -1.046875 6.4375 -1.140625 C 6.4375 -1.234375 6.441406 -1.285156 6.453125 -1.296875 C 6.472656 -1.316406 6.484375 -1.375 6.484375 -1.46875 C 6.484375 -1.5625 6.488281 -1.628906 6.5 -1.671875 C 6.519531 -1.722656 6.535156 -1.785156 6.546875 -1.859375 C 6.566406 -1.941406 6.59375 -2.003906 6.625 -2.046875 C 6.65625 -2.097656 6.691406 -2.160156 6.734375 -2.234375 C 6.785156 -2.316406 6.832031 -2.382812 6.875 -2.4375 C 6.925781 -2.488281 6.988281 -2.546875 7.0625 -2.609375 C 7.144531 -2.671875 7.21875 -2.71875 7.28125 -2.75 C 7.632812 -2.96875 8.140625 -3.078125 8.796875 -3.078125 C 9.460938 -3.078125 9.90625 -3.15625 10.125 -3.3125 C 10.25 -3.40625 10.332031 -3.5 10.375 -3.59375 C 10.425781 -3.6875 10.46875 -3.78125 10.5 -3.875 C 10.53125 -4 10.5625 -4.148438 10.59375 -4.328125 C 10.632812 -4.503906 10.660156 -4.691406 10.671875 -4.890625 C 10.691406 -5.097656 10.703125 -5.3125 10.703125 -5.53125 L 10.703125 -26.9375 L 8.609375 -26.9375 C 8.328125 -26.9375 8.0625 -26.910156 7.8125 -26.859375 C 7.5625 -26.804688 7.363281 -26.75 7.21875 -26.6875 C 7.070312 -26.625 6.9375 -26.546875 6.8125 -26.453125 C 6.4375 -26.171875 6.140625 -25.726562 5.921875 -25.125 C 5.859375 -24.9375 5.789062 -24.734375 5.71875 -24.515625 C 5.65625 -24.296875 5.59375 -24.039062 5.53125 -23.75 C 5.46875 -23.46875 5.40625 -23.160156 5.34375 -22.828125 C 5.28125 -22.503906 5.234375 -22.164062 5.203125 -21.8125 C 5.109375 -21.125 4.679688 -20.601562 3.921875 -20.25 C 3.421875 -20.03125 2.898438 -19.921875 2.359375 -19.921875 C 1.828125 -19.921875 1.34375 -20.082031 0.90625 -20.40625 C 0.332031 -20.8125 0.046875 -21.363281 0.046875 -22.0625 L 0.1875 -28.734375 C 0.1875 -29.390625 0.375 -29.925781 0.75 -30.34375 C 1.195312 -30.8125 1.832031 -31.046875 2.65625 -31.046875 L 25.796875 -31.046875 C 26.140625 -31.046875 26.460938 -31 26.765625 -30.90625 C 27.066406 -30.8125 27.34375 -30.640625 27.59375 -30.390625 C 27.8125 -30.160156 27.96875 -29.90625 28.0625 -29.625 C 28.15625 -29.34375 28.203125 -29.046875 28.203125 -28.734375 L 28.390625 -22.0625 C 28.390625 -21.707031 28.3125 -21.390625 28.15625 -21.109375 C 28 -20.828125 27.78125 -20.59375 27.5 -20.40625 C 27.050781 -20.082031 26.5625 -19.921875 26.03125 -19.921875 C 25.75 -19.921875 25.472656 -19.953125 25.203125 -20.015625 C 24.929688 -20.078125 24.6875 -20.15625 24.46875 -20.25 C 23.738281 -20.601562 23.328125 -21.109375 23.234375 -21.765625 C 23.015625 -23.285156 22.765625 -24.421875 22.484375 -25.171875 C 22.296875 -25.742188 22.007812 -26.171875 21.625 -26.453125 C 21.4375 -26.578125 21.1875 -26.6875 20.875 -26.78125 C 20.5625 -26.882812 20.195312 -26.9375 19.78125 -26.9375 L 17.75 -26.9375 L 17.75 -5.53125 C 17.78125 -4.84375 17.84375 -4.289062 17.9375 -3.875 C 17.96875 -3.78125 18.003906 -3.6875 18.046875 -3.59375 C 18.097656 -3.5 18.1875 -3.40625 18.3125 -3.3125 C 18.53125 -3.15625 18.972656 -3.078125 19.640625 -3.078125 L 19.921875 -3.078125 C 20.046875 -3.078125 20.15625 -3.066406 20.25 -3.046875 C 20.351562 -3.035156 20.46875 -3.019531 20.59375 -3 C 20.71875 -2.988281 20.832031 -2.953125 20.9375 -2.890625 C 21.050781 -2.828125 21.171875 -2.75 21.296875 -2.65625 C 21.703125 -2.332031 21.9375 -1.78125 22 -1 L 22 -0.90625 C 22 -0.363281 21.859375 0.109375 21.578125 0.515625 C 21.453125 0.671875 21.300781 0.8125 21.125 0.9375 C 20.957031 1.070312 20.769531 1.171875 20.5625 1.234375 C 20.351562 1.296875 20.15625 1.328125 19.96875 1.328125 L 19.921875 1.328125 C 18.910156 1.265625 17.945312 1.222656 17.03125 1.203125 C 16.125 1.191406 15.242188 1.1875 14.390625 1.1875 C 12.523438 1.1875 10.566406 1.234375 8.515625 1.328125 L 8.46875 1.328125 C 7.78125 1.328125 7.242188 1.054688 6.859375 0.515625 Z M 6.859375 0.515625 "/></g></g></g><g fill="#473500" fill-opacity="1"><g transform="translate(165.69678, 254.859226)"><g><path d="M 8.75 -0.1875 C 6.289062 -1.738281 4.382812 -3.789062 3.03125 -6.34375 C 1.707031 -8.894531 1.046875 -11.625 1.046875 -14.53125 C 1.046875 -18.0625 1.847656 -21.15625 3.453125 -23.8125 C 5.066406 -26.457031 7.125 -28.484375 9.625 -29.890625 C 12.132812 -31.296875 14.703125 -32 17.328125 -32 C 20.578125 -32 23.460938 -31.222656 25.984375 -29.671875 C 26.453125 -29.359375 26.914062 -29.023438 27.375 -28.671875 C 27.832031 -28.328125 28.265625 -27.957031 28.671875 -27.5625 C 29.085938 -27.175781 29.476562 -26.769531 29.84375 -26.34375 C 30.207031 -25.914062 30.546875 -25.460938 30.859375 -24.984375 C 31.171875 -24.515625 31.46875 -24.023438 31.75 -23.515625 C 33.082031 -20.992188 33.75 -18.28125 33.75 -15.375 C 33.75 -13.613281 33.539062 -11.957031 33.125 -10.40625 C 32.71875 -8.863281 32.101562 -7.414062 31.28125 -6.0625 C 30.488281 -4.769531 29.566406 -3.609375 28.515625 -2.578125 C 27.460938 -1.554688 26.300781 -0.695312 25.03125 0 C 22.476562 1.414062 19.910156 2.125 17.328125 2.125 C 14.109375 2.125 11.25 1.351562 8.75 -0.1875 Z M 21.859375 -3.921875 C 23.128906 -5.054688 24.09375 -6.601562 24.75 -8.5625 C 25.414062 -10.613281 25.75 -12.882812 25.75 -15.375 C 25.75 -17.6875 25.398438 -19.785156 24.703125 -21.671875 C 24.546875 -22.148438 24.363281 -22.59375 24.15625 -23 C 23.957031 -23.40625 23.738281 -23.789062 23.5 -24.15625 C 23.257812 -24.519531 23 -24.859375 22.71875 -25.171875 C 22.4375 -25.492188 22.132812 -25.78125 21.8125 -26.03125 C 21.5 -26.3125 21.175781 -26.546875 20.84375 -26.734375 C 20.507812 -26.929688 20.15625 -27.09375 19.78125 -27.21875 C 19.40625 -27.34375 19.007812 -27.4375 18.59375 -27.5 C 18.1875 -27.5625 17.75 -27.59375 17.28125 -27.59375 C 14.5625 -27.59375 12.523438 -26.457031 11.171875 -24.1875 C 10.441406 -22.957031 9.882812 -21.550781 9.5 -19.96875 C 9.125 -18.394531 8.9375 -16.628906 8.9375 -14.671875 C 8.9375 -13.503906 9.023438 -12.390625 9.203125 -11.328125 C 9.378906 -10.273438 9.625 -9.257812 9.9375 -8.28125 C 10.570312 -6.445312 11.519531 -4.976562 12.78125 -3.875 C 13.976562 -2.832031 15.476562 -2.3125 17.28125 -2.3125 C 19.101562 -2.3125 20.628906 -2.847656 21.859375 -3.921875 Z M 21.859375 -3.921875 "/></g></g></g><g fill="#473500" fill-opacity="1"><g transform="translate(209.859092, 254.859226)"><g><path d="M 1.328125 0.515625 C 1.171875 0.296875 1.0625 0.0703125 1 -0.15625 C 0.9375 -0.394531 0.90625 -0.644531 0.90625 -0.90625 L 0.90625 -1 C 0.90625 -1 0.90625 -1.03125 0.90625 -1.09375 C 0.96875 -1.90625 1.25 -2.457031 1.75 -2.75 C 2.09375 -2.96875 2.597656 -3.078125 3.265625 -3.078125 C 3.609375 -3.078125 3.890625 -3.097656 4.109375 -3.140625 C 4.335938 -3.191406 4.484375 -3.25 4.546875 -3.3125 C 4.734375 -3.46875 4.847656 -3.628906 4.890625 -3.796875 C 4.941406 -3.972656 4.984375 -4.21875 5.015625 -4.53125 C 5.046875 -4.851562 5.0625 -5.203125 5.0625 -5.578125 L 5.109375 -15.1875 L 5.15625 -24.328125 C 5.15625 -25.117188 5.078125 -25.6875 4.921875 -26.03125 C 4.859375 -26.25 4.734375 -26.40625 4.546875 -26.5 C 4.191406 -26.65625 3.65625 -26.800781 2.9375 -26.9375 C 2.90625 -26.96875 2.832031 -26.988281 2.71875 -27 C 2.613281 -27.019531 2.535156 -27.03125 2.484375 -27.03125 C 2.429688 -27.03125 2.363281 -27.035156 2.28125 -27.046875 C 2.207031 -27.066406 2.140625 -27.09375 2.078125 -27.125 C 2.015625 -27.15625 1.953125 -27.1875 1.890625 -27.21875 C 1.828125 -27.25 1.753906 -27.28125 1.671875 -27.3125 C 1.597656 -27.34375 1.53125 -27.390625 1.46875 -27.453125 C 1.019531 -27.796875 0.796875 -28.378906 0.796875 -29.203125 C 0.796875 -30.023438 1.082031 -30.609375 1.65625 -30.953125 C 2.0625 -31.203125 2.597656 -31.328125 3.265625 -31.328125 C 5.316406 -31.328125 6.957031 -31.1875 8.1875 -30.90625 C 9.476562 -30.59375 10.628906 -30.039062 11.640625 -29.25 C 12.148438 -28.84375 12.65625 -28.351562 13.15625 -27.78125 C 13.664062 -27.21875 14.1875 -26.570312 14.71875 -25.84375 L 25.703125 -11.453125 L 25.65625 -15.671875 L 25.609375 -24.28125 C 25.609375 -24.5 25.597656 -24.703125 25.578125 -24.890625 C 25.566406 -25.078125 25.550781 -25.242188 25.53125 -25.390625 C 25.519531 -25.535156 25.503906 -25.65625 25.484375 -25.75 C 25.472656 -25.84375 25.46875 -25.9375 25.46875 -26.03125 C 25.40625 -26.21875 25.273438 -26.390625 25.078125 -26.546875 C 24.859375 -26.703125 24.4375 -26.78125 23.8125 -26.78125 L 23.515625 -26.78125 C 23.234375 -26.78125 22.984375 -26.804688 22.765625 -26.859375 C 22.546875 -26.910156 22.328125 -27.03125 22.109375 -27.21875 C 21.910156 -27.375 21.753906 -27.566406 21.640625 -27.796875 C 21.535156 -28.035156 21.472656 -28.207031 21.453125 -28.3125 C 21.441406 -28.425781 21.421875 -28.613281 21.390625 -28.875 L 21.390625 -28.96875 C 21.390625 -29.53125 21.546875 -30.019531 21.859375 -30.4375 C 22.273438 -30.9375 22.796875 -31.1875 23.421875 -31.1875 L 23.46875 -31.1875 C 25.488281 -31.09375 26.988281 -31.046875 27.96875 -31.046875 C 28.25 -31.046875 28.679688 -31.050781 29.265625 -31.0625 C 29.847656 -31.082031 30.550781 -31.109375 31.375 -31.140625 L 32.375 -31.1875 L 32.421875 -31.1875 C 33.117188 -31.1875 33.65625 -30.921875 34.03125 -30.390625 C 34.3125 -29.972656 34.453125 -29.5 34.453125 -28.96875 L 34.453125 -28.875 C 34.390625 -27.988281 34.109375 -27.40625 33.609375 -27.125 C 33.253906 -26.894531 32.75 -26.78125 32.09375 -26.78125 C 31.738281 -26.78125 31.453125 -26.753906 31.234375 -26.703125 C 31.015625 -26.660156 30.875 -26.609375 30.8125 -26.546875 C 30.625 -26.390625 30.503906 -26.222656 30.453125 -26.046875 C 30.410156 -25.878906 30.375 -25.632812 30.34375 -25.3125 C 30.3125 -25 30.296875 -24.671875 30.296875 -24.328125 L 30.25 -15.8125 L 30.203125 -0.46875 L 30.203125 -0.375 C 30.128906 0.25 29.859375 0.6875 29.390625 0.9375 C 28.921875 1.195312 28.398438 1.328125 27.828125 1.328125 C 26.847656 1.328125 26.078125 0.960938 25.515625 0.234375 L 9.65625 -20.921875 L 9.703125 -15.46875 L 9.75 -5.578125 C 9.78125 -4.796875 9.828125 -4.210938 9.890625 -3.828125 C 9.984375 -3.609375 10.109375 -3.4375 10.265625 -3.3125 C 10.484375 -3.15625 10.910156 -3.078125 11.546875 -3.078125 L 11.828125 -3.078125 C 12.117188 -3.078125 12.375 -3.050781 12.59375 -3 C 12.8125 -2.957031 13.03125 -2.84375 13.25 -2.65625 C 13.65625 -2.332031 13.894531 -1.78125 13.96875 -1 L 13.96875 -0.90625 C 13.96875 -0.363281 13.820312 0.109375 13.53125 0.515625 C 13.40625 0.671875 13.253906 0.8125 13.078125 0.9375 C 12.910156 1.070312 12.722656 1.171875 12.515625 1.234375 C 12.304688 1.296875 12.109375 1.328125 11.921875 1.328125 L 11.875 1.328125 C 9.851562 1.234375 8.335938 1.1875 7.328125 1.1875 C 7.203125 1.1875 7.0625 1.1875 6.90625 1.1875 C 6.75 1.1875 6.566406 1.1875 6.359375 1.1875 C 6.160156 1.1875 5.941406 1.191406 5.703125 1.203125 C 5.460938 1.222656 5.207031 1.238281 4.9375 1.25 C 4.675781 1.269531 4.382812 1.28125 4.0625 1.28125 L 2.984375 1.328125 C 2.253906 1.328125 1.703125 1.054688 1.328125 0.515625 Z M 1.328125 0.515625 "/></g></g></g><g fill="#473500" fill-opacity="1"><g transform="translate(254.11607, 254.859226)"><g><path d="M 1.28125 0.515625 C 1.125 0.296875 1.015625 0.0703125 0.953125 -0.15625 C 0.890625 -0.394531 0.859375 -0.644531 0.859375 -0.90625 L 0.859375 -1 C 0.859375 -1 0.859375 -1.03125 0.859375 -1.09375 C 0.921875 -1.90625 1.203125 -2.457031 1.703125 -2.75 C 2.046875 -2.96875 2.550781 -3.078125 3.21875 -3.078125 C 3.882812 -3.078125 4.328125 -3.15625 4.546875 -3.3125 C 4.765625 -3.46875 4.890625 -3.65625 4.921875 -3.875 C 5.015625 -4.289062 5.078125 -4.84375 5.109375 -5.53125 L 5.109375 -24.328125 C 5.078125 -25.023438 5.015625 -25.578125 4.921875 -25.984375 C 4.921875 -26.046875 4.90625 -26.109375 4.875 -26.171875 C 4.84375 -26.234375 4.800781 -26.296875 4.75 -26.359375 C 4.707031 -26.421875 4.640625 -26.46875 4.546875 -26.5 C 4.328125 -26.6875 3.882812 -26.78125 3.21875 -26.78125 L 2.9375 -26.78125 C 2.8125 -26.78125 2.703125 -26.785156 2.609375 -26.796875 C 2.515625 -26.816406 2.394531 -26.832031 2.25 -26.84375 C 2.101562 -26.863281 1.96875 -26.90625 1.84375 -26.96875 C 1.71875 -27.039062 1.609375 -27.140625 1.515625 -27.265625 C 1.453125 -27.296875 1.390625 -27.34375 1.328125 -27.40625 C 1.265625 -27.46875 1.21875 -27.519531 1.1875 -27.5625 C 1.15625 -27.613281 1.125 -27.671875 1.09375 -27.734375 C 1.0625 -27.796875 1.035156 -27.847656 1.015625 -27.890625 C 1.003906 -27.941406 0.988281 -28.003906 0.96875 -28.078125 C 0.957031 -28.160156 0.941406 -28.21875 0.921875 -28.25 C 0.910156 -28.28125 0.90625 -28.332031 0.90625 -28.40625 C 0.90625 -28.488281 0.894531 -28.546875 0.875 -28.578125 C 0.863281 -28.617188 0.859375 -28.671875 0.859375 -28.734375 C 0.859375 -28.796875 0.859375 -28.84375 0.859375 -28.875 L 0.859375 -28.96875 C 0.890625 -29.5 1.03125 -29.972656 1.28125 -30.390625 C 1.4375 -30.640625 1.65625 -30.832031 1.9375 -30.96875 C 2.21875 -31.113281 2.519531 -31.1875 2.84375 -31.1875 L 2.890625 -31.1875 C 4.972656 -31.09375 6.832031 -31.046875 8.46875 -31.046875 L 23.328125 -31.046875 C 23.679688 -31.046875 24.003906 -31 24.296875 -30.90625 C 24.597656 -30.8125 24.875 -30.640625 25.125 -30.390625 C 25.539062 -29.972656 25.75 -29.421875 25.75 -28.734375 L 25.890625 -22.109375 C 25.890625 -21.378906 25.554688 -20.8125 24.890625 -20.40625 C 24.421875 -20.113281 23.929688 -19.96875 23.421875 -19.96875 C 23.328125 -19.96875 23.238281 -19.96875 23.15625 -19.96875 C 23.082031 -19.96875 23 -19.972656 22.90625 -19.984375 C 22.8125 -20.003906 22.722656 -20.019531 22.640625 -20.03125 C 22.566406 -20.050781 22.488281 -20.078125 22.40625 -20.109375 C 22.332031 -20.140625 22.242188 -20.171875 22.140625 -20.203125 C 22.046875 -20.234375 21.96875 -20.265625 21.90625 -20.296875 C 21.28125 -20.617188 20.90625 -21.125 20.78125 -21.8125 C 20.5625 -23.300781 20.304688 -24.40625 20.015625 -25.125 C 19.796875 -25.695312 19.515625 -26.109375 19.171875 -26.359375 C 18.753906 -26.609375 18.140625 -26.75 17.328125 -26.78125 L 12.15625 -26.78125 L 12.15625 -17.140625 L 19.734375 -17.140625 C 20.304688 -17.035156 20.75 -16.734375 21.0625 -16.234375 C 21.3125 -15.828125 21.4375 -15.367188 21.4375 -14.859375 C 21.4375 -14.734375 21.425781 -14.613281 21.40625 -14.5 C 21.394531 -14.394531 21.375 -14.285156 21.34375 -14.171875 C 21.3125 -14.066406 21.269531 -13.957031 21.21875 -13.84375 C 21.175781 -13.726562 21.125 -13.625 21.0625 -13.53125 C 20.90625 -13.28125 20.679688 -13.082031 20.390625 -12.9375 C 20.109375 -12.800781 19.828125 -12.734375 19.546875 -12.734375 L 12.15625 -12.734375 L 12.15625 -5.015625 C 12.226562 -4.453125 12.296875 -3.992188 12.359375 -3.640625 C 12.390625 -3.546875 12.515625 -3.4375 12.734375 -3.3125 C 12.984375 -3.125 13.503906 -3.046875 14.296875 -3.078125 L 18.640625 -3.078125 C 19.117188 -3.109375 19.515625 -3.15625 19.828125 -3.21875 C 20.140625 -3.28125 20.378906 -3.359375 20.546875 -3.453125 C 20.921875 -3.671875 21.21875 -4.019531 21.4375 -4.5 C 21.5625 -4.78125 21.726562 -5.195312 21.9375 -5.75 C 22.144531 -6.300781 22.359375 -6.957031 22.578125 -7.71875 L 22.578125 -7.765625 L 22.625 -7.8125 C 22.84375 -8.375 23.21875 -8.773438 23.75 -9.015625 C 24.289062 -9.253906 24.878906 -9.328125 25.515625 -9.234375 L 25.5625 -9.234375 C 25.8125 -9.171875 26.046875 -9.082031 26.265625 -8.96875 C 26.484375 -8.851562 26.6875 -8.734375 26.875 -8.609375 C 27.132812 -8.390625 27.332031 -8.117188 27.46875 -7.796875 C 27.613281 -7.484375 27.671875 -7.15625 27.640625 -6.8125 L 27.640625 -6.765625 L 26.6875 -0.796875 L 26.6875 -0.75 L 26.640625 -0.703125 C 26.578125 -0.390625 26.484375 -0.109375 26.359375 0.140625 C 26.234375 0.390625 26.03125 0.609375 25.75 0.796875 C 25.363281 1.054688 24.828125 1.1875 24.140625 1.1875 L 8.515625 1.1875 C 7.660156 1.1875 6.769531 1.191406 5.84375 1.203125 C 4.914062 1.222656 3.929688 1.265625 2.890625 1.328125 L 2.84375 1.328125 C 2.175781 1.328125 1.65625 1.054688 1.28125 0.515625 Z M 1.28125 0.515625 "/></g></g></g><g fill="#473500" fill-opacity="1"><g transform="translate(93.043736, 293.645148)"><g><path d="M 9.09375 -9.71875 C 9.132812 -9.832031 9.179688 -9.925781 9.234375 -10 C 9.285156 -10.070312 9.328125 -10.117188 9.359375 -10.140625 C 9.398438 -10.160156 9.453125 -10.1875 9.515625 -10.21875 C 9.585938 -10.257812 9.628906 -10.285156 9.640625 -10.296875 C 9.785156 -10.390625 9.921875 -10.523438 10.046875 -10.703125 C 10.140625 -10.847656 10.1875 -11.03125 10.1875 -11.25 C 10.1875 -11.738281 10.03125 -12.125 9.71875 -12.40625 C 9.375 -12.695312 8.875 -12.84375 8.21875 -12.84375 C 7.445312 -12.84375 6.757812 -12.625 6.15625 -12.1875 C 5.5625 -11.75 5.085938 -11.09375 4.734375 -10.21875 C 4.367188 -9.3125 4.1875 -8.222656 4.1875 -6.953125 C 4.1875 -5.859375 4.375 -4.863281 4.75 -3.96875 C 5.132812 -3.101562 5.671875 -2.421875 6.359375 -1.921875 C 7.015625 -1.429688 7.773438 -1.1875 8.640625 -1.1875 C 9.191406 -1.1875 9.671875 -1.273438 10.078125 -1.453125 C 10.179688 -1.492188 10.285156 -1.539062 10.390625 -1.59375 C 10.867188 -1.875 11.300781 -2.320312 11.6875 -2.9375 C 11.726562 -3.007812 11.773438 -3.070312 11.828125 -3.125 C 11.890625 -3.1875 11.957031 -3.242188 12.03125 -3.296875 C 12.101562 -3.347656 12.179688 -3.390625 12.265625 -3.421875 C 12.347656 -3.453125 12.425781 -3.46875 12.5 -3.46875 C 12.71875 -3.46875 12.941406 -3.394531 13.171875 -3.25 L 13.203125 -3.25 C 13.585938 -2.96875 13.78125 -2.648438 13.78125 -2.296875 C 13.78125 -2.242188 13.773438 -2.191406 13.765625 -2.140625 C 13.753906 -2.085938 13.734375 -2.035156 13.703125 -1.984375 C 13.679688 -1.929688 13.660156 -1.882812 13.640625 -1.84375 C 13.617188 -1.800781 13.59375 -1.753906 13.5625 -1.703125 C 13.269531 -1.359375 12.988281 -1.046875 12.71875 -0.765625 C 12.445312 -0.484375 12.175781 -0.242188 11.90625 -0.046875 C 11.59375 0.171875 11.269531 0.351562 10.9375 0.5 C 10.675781 0.613281 10.40625 0.703125 10.125 0.765625 C 9.507812 0.910156 8.75 0.984375 7.84375 0.984375 C 6.5 0.984375 5.273438 0.660156 4.171875 0.015625 C 3.054688 -0.617188 2.171875 -1.53125 1.515625 -2.71875 C 0.859375 -3.90625 0.53125 -5.269531 0.53125 -6.8125 C 0.53125 -7.59375 0.601562 -8.328125 0.75 -9.015625 C 0.90625 -9.710938 1.144531 -10.367188 1.46875 -10.984375 C 2.09375 -12.191406 3 -13.132812 4.1875 -13.8125 C 5.34375 -14.476562 6.695312 -14.8125 8.25 -14.8125 C 9.59375 -14.8125 10.789062 -14.546875 11.84375 -14.015625 C 12.070312 -13.890625 12.273438 -13.75 12.453125 -13.59375 C 12.640625 -13.445312 12.804688 -13.285156 12.953125 -13.109375 C 13.097656 -12.929688 13.21875 -12.738281 13.3125 -12.53125 C 13.40625 -12.332031 13.476562 -12.117188 13.53125 -11.890625 C 13.582031 -11.660156 13.609375 -11.425781 13.609375 -11.1875 C 13.628906 -10.394531 13.390625 -9.710938 12.890625 -9.140625 C 12.628906 -8.847656 12.320312 -8.628906 11.96875 -8.484375 C 11.613281 -8.335938 11.234375 -8.265625 10.828125 -8.265625 C 10.472656 -8.265625 10.164062 -8.332031 9.90625 -8.46875 C 9.851562 -8.507812 9.796875 -8.546875 9.734375 -8.578125 C 9.671875 -8.617188 9.613281 -8.65625 9.5625 -8.6875 C 9.507812 -8.726562 9.460938 -8.773438 9.421875 -8.828125 C 9.378906 -8.878906 9.335938 -8.929688 9.296875 -8.984375 C 9.148438 -9.222656 9.082031 -9.46875 9.09375 -9.71875 Z M 9.09375 -9.71875 "/></g></g></g><g fill="#473500" fill-opacity="1"><g transform="translate(111.563425, 293.645148)"><g><path d="M -0.609375 0.234375 C -0.742188 0.046875 -0.8125 -0.171875 -0.8125 -0.421875 L -0.8125 -0.453125 C -0.8125 -0.453125 -0.8125 -0.46875 -0.8125 -0.5 C -0.78125 -0.882812 -0.648438 -1.140625 -0.421875 -1.265625 C -0.253906 -1.367188 -0.0703125 -1.421875 0.125 -1.421875 L 0.328125 -1.421875 C 0.609375 -1.421875 0.789062 -1.472656 0.875 -1.578125 C 1.050781 -1.765625 1.191406 -1.96875 1.296875 -2.1875 C 1.304688 -2.25 1.320312 -2.300781 1.34375 -2.34375 C 1.363281 -2.382812 1.378906 -2.421875 1.390625 -2.453125 C 1.410156 -2.492188 1.425781 -2.53125 1.4375 -2.5625 C 1.457031 -2.59375 1.46875 -2.625 1.46875 -2.65625 C 1.476562 -2.6875 1.488281 -2.710938 1.5 -2.734375 C 1.519531 -2.753906 1.53125 -2.769531 1.53125 -2.78125 L 2.0625 -4.03125 L 5.375 -11.859375 C 5.425781 -12.003906 5.453125 -12.109375 5.453125 -12.171875 L 5.4375 -12.25 C 5.28125 -12.34375 5.046875 -12.414062 4.734375 -12.46875 C 4.410156 -12.53125 4.1875 -12.613281 4.0625 -12.71875 C 3.851562 -12.875 3.75 -13.140625 3.75 -13.515625 C 3.75 -13.898438 3.878906 -14.175781 4.140625 -14.34375 C 4.328125 -14.457031 4.578125 -14.515625 4.890625 -14.515625 C 5.148438 -14.515625 5.390625 -14.503906 5.609375 -14.484375 C 5.828125 -14.472656 6.03125 -14.457031 6.21875 -14.4375 C 6.414062 -14.414062 6.601562 -14.382812 6.78125 -14.34375 C 7.300781 -14.195312 7.757812 -13.925781 8.15625 -13.53125 C 8.519531 -13.144531 8.851562 -12.582031 9.15625 -11.84375 L 12.84375 -2.765625 C 13.050781 -2.253906 13.242188 -1.878906 13.421875 -1.640625 C 13.472656 -1.566406 13.535156 -1.507812 13.609375 -1.46875 C 13.679688 -1.4375 13.78125 -1.421875 13.90625 -1.421875 L 14.03125 -1.421875 C 14.3125 -1.421875 14.53125 -1.347656 14.6875 -1.203125 C 14.71875 -1.191406 14.742188 -1.171875 14.765625 -1.140625 C 14.796875 -1.109375 14.816406 -1.082031 14.828125 -1.0625 C 14.847656 -1.039062 14.863281 -1.015625 14.875 -0.984375 C 14.894531 -0.953125 14.90625 -0.925781 14.90625 -0.90625 C 14.914062 -0.882812 14.925781 -0.851562 14.9375 -0.8125 C 14.945312 -0.78125 14.953125 -0.753906 14.953125 -0.734375 C 14.960938 -0.722656 14.96875 -0.695312 14.96875 -0.65625 C 14.96875 -0.625 14.972656 -0.597656 14.984375 -0.578125 C 14.992188 -0.566406 15 -0.546875 15 -0.515625 C 15 -0.492188 15 -0.472656 15 -0.453125 L 15 -0.421875 C 15 -0.171875 14.929688 0.046875 14.796875 0.234375 C 14.734375 0.304688 14.660156 0.375 14.578125 0.4375 C 14.503906 0.5 14.421875 0.539062 14.328125 0.5625 C 14.234375 0.59375 14.140625 0.609375 14.046875 0.609375 L 14.03125 0.609375 C 13.09375 0.566406 12.296875 0.546875 11.640625 0.546875 C 10.773438 0.546875 9.875 0.566406 8.9375 0.609375 L 8.921875 0.609375 C 8.835938 0.609375 8.742188 0.59375 8.640625 0.5625 C 8.546875 0.539062 8.457031 0.5 8.375 0.4375 C 8.300781 0.375 8.234375 0.304688 8.171875 0.234375 C 8.097656 0.140625 8.046875 0.0390625 8.015625 -0.0625 C 7.992188 -0.175781 7.984375 -0.296875 7.984375 -0.421875 L 7.984375 -0.453125 C 8.003906 -0.804688 8.101562 -1.054688 8.28125 -1.203125 C 8.445312 -1.347656 8.664062 -1.421875 8.9375 -1.421875 C 9.332031 -1.421875 9.601562 -1.453125 9.75 -1.515625 C 9.75 -1.523438 9.75 -1.53125 9.75 -1.53125 C 9.75 -1.550781 9.742188 -1.597656 9.734375 -1.671875 C 9.722656 -1.742188 9.695312 -1.84375 9.65625 -1.96875 C 9.625 -2.101562 9.582031 -2.238281 9.53125 -2.375 L 8.921875 -3.84375 L 4.25 -3.84375 C 4.101562 -3.488281 3.992188 -3.207031 3.921875 -3 C 3.835938 -2.8125 3.785156 -2.6875 3.765625 -2.625 C 3.753906 -2.601562 3.742188 -2.5625 3.734375 -2.5 C 3.734375 -2.46875 3.726562 -2.441406 3.71875 -2.421875 C 3.707031 -2.410156 3.703125 -2.398438 3.703125 -2.390625 C 3.628906 -2.179688 3.570312 -1.992188 3.53125 -1.828125 C 3.488281 -1.660156 3.46875 -1.554688 3.46875 -1.515625 C 3.65625 -1.453125 4 -1.421875 4.5 -1.421875 L 4.625 -1.421875 C 4.90625 -1.421875 5.125 -1.347656 5.28125 -1.203125 C 5.457031 -1.054688 5.5625 -0.804688 5.59375 -0.453125 L 5.59375 -0.421875 C 5.59375 -0.171875 5.523438 0.046875 5.390625 0.234375 C 5.304688 0.359375 5.195312 0.453125 5.0625 0.515625 C 4.925781 0.578125 4.785156 0.609375 4.640625 0.609375 L 4.625 0.609375 C 4.15625 0.578125 3.722656 0.554688 3.328125 0.546875 C 2.929688 0.546875 2.578125 0.546875 2.265625 0.546875 C 1.804688 0.546875 1.101562 0.566406 0.15625 0.609375 L 0.125 0.609375 C -0.1875 0.609375 -0.429688 0.484375 -0.609375 0.234375 Z M 5.109375 -5.875 L 8.09375 -5.875 L 6.640625 -9.578125 Z M 5.109375 -5.875 "/></g></g></g><g fill="#473500" fill-opacity="1"><g transform="translate(130.389914, 293.645148)"><g><path d="M 0.59375 0.234375 C 0.519531 0.140625 0.46875 0.0390625 0.4375 -0.0625 C 0.40625 -0.175781 0.390625 -0.296875 0.390625 -0.421875 L 0.390625 -0.453125 C 0.390625 -0.453125 0.390625 -0.46875 0.390625 -0.5 C 0.421875 -0.882812 0.554688 -1.140625 0.796875 -1.265625 C 0.953125 -1.367188 1.179688 -1.421875 1.484375 -1.421875 C 1.796875 -1.421875 2.003906 -1.457031 2.109375 -1.53125 C 2.210938 -1.601562 2.269531 -1.691406 2.28125 -1.796875 C 2.320312 -1.984375 2.351562 -2.238281 2.375 -2.5625 L 2.375 -11.265625 C 2.351562 -11.585938 2.320312 -11.84375 2.28125 -12.03125 C 2.28125 -12.0625 2.269531 -12.09375 2.25 -12.125 C 2.238281 -12.15625 2.222656 -12.179688 2.203125 -12.203125 C 2.179688 -12.234375 2.148438 -12.257812 2.109375 -12.28125 C 2.003906 -12.363281 1.796875 -12.40625 1.484375 -12.40625 L 1.359375 -12.40625 C 1.296875 -12.40625 1.242188 -12.410156 1.203125 -12.421875 C 1.160156 -12.429688 1.101562 -12.4375 1.03125 -12.4375 C 0.96875 -12.445312 0.90625 -12.46875 0.84375 -12.5 C 0.789062 -12.53125 0.742188 -12.570312 0.703125 -12.625 C 0.671875 -12.644531 0.640625 -12.664062 0.609375 -12.6875 C 0.578125 -12.71875 0.554688 -12.742188 0.546875 -12.765625 C 0.535156 -12.785156 0.519531 -12.8125 0.5 -12.84375 C 0.488281 -12.875 0.476562 -12.898438 0.46875 -12.921875 C 0.457031 -12.941406 0.445312 -12.96875 0.4375 -13 C 0.4375 -13.039062 0.429688 -13.066406 0.421875 -13.078125 C 0.421875 -13.097656 0.421875 -13.125 0.421875 -13.15625 C 0.421875 -13.195312 0.414062 -13.222656 0.40625 -13.234375 C 0.394531 -13.253906 0.390625 -13.273438 0.390625 -13.296875 C 0.390625 -13.328125 0.390625 -13.351562 0.390625 -13.375 L 0.390625 -13.421875 C 0.410156 -13.660156 0.476562 -13.878906 0.59375 -14.078125 C 0.664062 -14.191406 0.765625 -14.28125 0.890625 -14.34375 C 1.023438 -14.414062 1.164062 -14.453125 1.3125 -14.453125 L 1.34375 -14.453125 C 2.300781 -14.398438 3.160156 -14.375 3.921875 -14.375 C 4.785156 -14.375 5.691406 -14.398438 6.640625 -14.453125 L 6.671875 -14.453125 C 6.753906 -14.453125 6.84375 -14.4375 6.9375 -14.40625 C 7.03125 -14.375 7.117188 -14.328125 7.203125 -14.265625 C 7.285156 -14.210938 7.351562 -14.148438 7.40625 -14.078125 C 7.476562 -13.972656 7.53125 -13.863281 7.5625 -13.75 C 7.59375 -13.644531 7.609375 -13.535156 7.609375 -13.421875 L 7.609375 -13.375 C 7.578125 -12.96875 7.429688 -12.691406 7.171875 -12.546875 C 7.066406 -12.484375 6.96875 -12.441406 6.875 -12.421875 C 6.78125 -12.410156 6.660156 -12.40625 6.515625 -12.40625 C 6.203125 -12.40625 5.992188 -12.363281 5.890625 -12.28125 C 5.796875 -12.21875 5.738281 -12.132812 5.71875 -12.03125 C 5.675781 -11.84375 5.648438 -11.585938 5.640625 -11.265625 L 5.640625 -2.265625 C 5.660156 -2.015625 5.6875 -1.816406 5.71875 -1.671875 C 5.71875 -1.648438 5.722656 -1.632812 5.734375 -1.625 C 5.753906 -1.625 5.773438 -1.613281 5.796875 -1.59375 C 5.816406 -1.570312 5.84375 -1.550781 5.875 -1.53125 C 5.9375 -1.5 6.023438 -1.472656 6.140625 -1.453125 C 6.253906 -1.429688 6.414062 -1.421875 6.625 -1.421875 L 8.59375 -1.421875 C 9 -1.441406 9.289062 -1.5 9.46875 -1.59375 C 9.644531 -1.695312 9.785156 -1.859375 9.890625 -2.078125 C 9.941406 -2.210938 10.015625 -2.40625 10.109375 -2.65625 C 10.210938 -2.914062 10.3125 -3.222656 10.40625 -3.578125 L 10.40625 -3.59375 L 10.4375 -3.609375 C 10.539062 -3.878906 10.710938 -4.066406 10.953125 -4.171875 C 11.203125 -4.285156 11.472656 -4.320312 11.765625 -4.28125 L 11.796875 -4.28125 L 11.796875 -4.25 C 11.910156 -4.238281 12.015625 -4.207031 12.109375 -4.15625 C 12.203125 -4.101562 12.296875 -4.046875 12.390625 -3.984375 C 12.660156 -3.765625 12.785156 -3.488281 12.765625 -3.15625 L 12.765625 -3.140625 L 12.3125 -0.375 L 12.3125 -0.34375 L 12.296875 -0.328125 C 12.265625 -0.179688 12.21875 -0.0507812 12.15625 0.0625 C 12.101562 0.175781 12.007812 0.28125 11.875 0.375 C 11.707031 0.488281 11.460938 0.546875 11.140625 0.546875 L 3.953125 0.546875 C 3.554688 0.546875 3.140625 0.546875 2.703125 0.546875 C 2.273438 0.554688 1.820312 0.578125 1.34375 0.609375 L 1.3125 0.609375 C 1.007812 0.609375 0.769531 0.484375 0.59375 0.234375 Z M 0.59375 0.234375 "/></g></g></g><g fill="#473500" fill-opacity="1"><g transform="translate(147.419427, 293.645148)"><g><path d="M 0.59375 0.234375 C 0.519531 0.140625 0.46875 0.0390625 0.4375 -0.0625 C 0.40625 -0.175781 0.390625 -0.296875 0.390625 -0.421875 L 0.390625 -0.453125 C 0.390625 -0.453125 0.390625 -0.46875 0.390625 -0.5 C 0.421875 -0.882812 0.554688 -1.140625 0.796875 -1.265625 C 0.953125 -1.367188 1.179688 -1.421875 1.484375 -1.421875 C 1.796875 -1.421875 2.003906 -1.457031 2.109375 -1.53125 C 2.210938 -1.601562 2.269531 -1.691406 2.28125 -1.796875 C 2.320312 -1.984375 2.351562 -2.238281 2.375 -2.5625 L 2.375 -11.265625 C 2.351562 -11.585938 2.320312 -11.84375 2.28125 -12.03125 C 2.28125 -12.0625 2.269531 -12.09375 2.25 -12.125 C 2.238281 -12.15625 2.222656 -12.179688 2.203125 -12.203125 C 2.179688 -12.234375 2.148438 -12.257812 2.109375 -12.28125 C 2.003906 -12.363281 1.796875 -12.40625 1.484375 -12.40625 L 1.359375 -12.40625 C 1.296875 -12.40625 1.242188 -12.410156 1.203125 -12.421875 C 1.160156 -12.429688 1.101562 -12.4375 1.03125 -12.4375 C 0.96875 -12.445312 0.90625 -12.46875 0.84375 -12.5 C 0.789062 -12.53125 0.742188 -12.570312 0.703125 -12.625 C 0.671875 -12.644531 0.640625 -12.664062 0.609375 -12.6875 C 0.578125 -12.71875 0.554688 -12.742188 0.546875 -12.765625 C 0.535156 -12.785156 0.519531 -12.8125 0.5 -12.84375 C 0.488281 -12.875 0.476562 -12.898438 0.46875 -12.921875 C 0.457031 -12.941406 0.445312 -12.96875 0.4375 -13 C 0.4375 -13.039062 0.429688 -13.066406 0.421875 -13.078125 C 0.421875 -13.097656 0.421875 -13.125 0.421875 -13.15625 C 0.421875 -13.195312 0.414062 -13.222656 0.40625 -13.234375 C 0.394531 -13.253906 0.390625 -13.273438 0.390625 -13.296875 C 0.390625 -13.328125 0.390625 -13.351562 0.390625 -13.375 L 0.390625 -13.421875 C 0.410156 -13.660156 0.476562 -13.878906 0.59375 -14.078125 C 0.664062 -14.191406 0.765625 -14.28125 0.890625 -14.34375 C 1.023438 -14.414062 1.164062 -14.453125 1.3125 -14.453125 L 1.34375 -14.453125 C 2.300781 -14.398438 3.160156 -14.375 3.921875 -14.375 C 4.785156 -14.375 5.691406 -14.398438 6.640625 -14.453125 L 6.671875 -14.453125 C 6.753906 -14.453125 6.84375 -14.4375 6.9375 -14.40625 C 7.03125 -14.375 7.117188 -14.328125 7.203125 -14.265625 C 7.285156 -14.210938 7.351562 -14.148438 7.40625 -14.078125 C 7.476562 -13.972656 7.53125 -13.863281 7.5625 -13.75 C 7.59375 -13.644531 7.609375 -13.535156 7.609375 -13.421875 L 7.609375 -13.375 C 7.578125 -12.96875 7.429688 -12.691406 7.171875 -12.546875 C 7.066406 -12.484375 6.96875 -12.441406 6.875 -12.421875 C 6.78125 -12.410156 6.660156 -12.40625 6.515625 -12.40625 C 6.203125 -12.40625 5.992188 -12.363281 5.890625 -12.28125 C 5.796875 -12.21875 5.738281 -12.132812 5.71875 -12.03125 C 5.675781 -11.84375 5.648438 -11.585938 5.640625 -11.265625 L 5.640625 -2.265625 C 5.660156 -2.015625 5.6875 -1.816406 5.71875 -1.671875 C 5.71875 -1.648438 5.722656 -1.632812 5.734375 -1.625 C 5.753906 -1.625 5.773438 -1.613281 5.796875 -1.59375 C 5.816406 -1.570312 5.84375 -1.550781 5.875 -1.53125 C 5.9375 -1.5 6.023438 -1.472656 6.140625 -1.453125 C 6.253906 -1.429688 6.414062 -1.421875 6.625 -1.421875 L 8.59375 -1.421875 C 9 -1.441406 9.289062 -1.5 9.46875 -1.59375 C 9.644531 -1.695312 9.785156 -1.859375 9.890625 -2.078125 C 9.941406 -2.210938 10.015625 -2.40625 10.109375 -2.65625 C 10.210938 -2.914062 10.3125 -3.222656 10.40625 -3.578125 L 10.40625 -3.59375 L 10.4375 -3.609375 C 10.539062 -3.878906 10.710938 -4.066406 10.953125 -4.171875 C 11.203125 -4.285156 11.472656 -4.320312 11.765625 -4.28125 L 11.796875 -4.28125 L 11.796875 -4.25 C 11.910156 -4.238281 12.015625 -4.207031 12.109375 -4.15625 C 12.203125 -4.101562 12.296875 -4.046875 12.390625 -3.984375 C 12.660156 -3.765625 12.785156 -3.488281 12.765625 -3.15625 L 12.765625 -3.140625 L 12.3125 -0.375 L 12.3125 -0.34375 L 12.296875 -0.328125 C 12.265625 -0.179688 12.21875 -0.0507812 12.15625 0.0625 C 12.101562 0.175781 12.007812 0.28125 11.875 0.375 C 11.707031 0.488281 11.460938 0.546875 11.140625 0.546875 L 3.953125 0.546875 C 3.554688 0.546875 3.140625 0.546875 2.703125 0.546875 C 2.273438 0.554688 1.820312 0.578125 1.34375 0.609375 L 1.3125 0.609375 C 1.007812 0.609375 0.769531 0.484375 0.59375 0.234375 Z M 0.59375 0.234375 "/></g></g></g><g fill="#473500" fill-opacity="1"><g transform="translate(164.448937, 293.645148)"><g><path d="M 0.5625 0.234375 C 0.488281 0.140625 0.4375 0.0390625 0.40625 -0.0625 C 0.382812 -0.175781 0.375 -0.296875 0.375 -0.421875 L 0.375 -0.453125 C 0.40625 -0.867188 0.550781 -1.148438 0.8125 -1.296875 C 0.96875 -1.378906 1.1875 -1.421875 1.46875 -1.421875 C 1.769531 -1.421875 1.972656 -1.457031 2.078125 -1.53125 C 2.179688 -1.625 2.25 -1.710938 2.28125 -1.796875 C 2.289062 -1.878906 2.304688 -1.988281 2.328125 -2.125 C 2.359375 -2.257812 2.375 -2.40625 2.375 -2.5625 L 2.375 -11.265625 C 2.351562 -11.441406 2.332031 -11.59375 2.3125 -11.71875 C 2.300781 -11.84375 2.289062 -11.945312 2.28125 -12.03125 C 2.25 -12.125 2.179688 -12.207031 2.078125 -12.28125 C 1.972656 -12.363281 1.769531 -12.40625 1.46875 -12.40625 L 1.34375 -12.40625 C 1.070312 -12.40625 0.859375 -12.472656 0.703125 -12.609375 C 0.609375 -12.679688 0.535156 -12.769531 0.484375 -12.875 C 0.441406 -12.988281 0.414062 -13.070312 0.40625 -13.125 C 0.394531 -13.175781 0.382812 -13.257812 0.375 -13.375 L 0.375 -13.421875 C 0.375 -13.472656 0.375 -13.523438 0.375 -13.578125 C 0.382812 -13.640625 0.394531 -13.695312 0.40625 -13.75 C 0.425781 -13.800781 0.453125 -13.851562 0.484375 -13.90625 C 0.515625 -13.957031 0.539062 -14.015625 0.5625 -14.078125 C 0.625 -14.148438 0.695312 -14.210938 0.78125 -14.265625 C 0.863281 -14.328125 0.953125 -14.375 1.046875 -14.40625 C 1.140625 -14.4375 1.226562 -14.453125 1.3125 -14.453125 L 1.34375 -14.453125 C 1.570312 -14.429688 1.800781 -14.414062 2.03125 -14.40625 C 2.257812 -14.40625 2.484375 -14.398438 2.703125 -14.390625 C 2.921875 -14.378906 3.128906 -14.375 3.328125 -14.375 C 3.535156 -14.375 3.734375 -14.375 3.921875 -14.375 C 4.785156 -14.375 5.691406 -14.398438 6.640625 -14.453125 L 6.671875 -14.453125 C 6.753906 -14.453125 6.84375 -14.4375 6.9375 -14.40625 C 7.03125 -14.375 7.117188 -14.328125 7.203125 -14.265625 C 7.285156 -14.210938 7.351562 -14.148438 7.40625 -14.078125 C 7.476562 -13.972656 7.53125 -13.863281 7.5625 -13.75 C 7.59375 -13.644531 7.609375 -13.535156 7.609375 -13.421875 L 7.609375 -13.375 C 7.578125 -12.96875 7.429688 -12.691406 7.171875 -12.546875 C 7.066406 -12.484375 6.960938 -12.441406 6.859375 -12.421875 C 6.753906 -12.410156 6.628906 -12.40625 6.484375 -12.40625 C 6.179688 -12.40625 5.976562 -12.363281 5.875 -12.28125 C 5.769531 -12.21875 5.710938 -12.132812 5.703125 -12.03125 C 5.660156 -11.84375 5.628906 -11.585938 5.609375 -11.265625 L 5.609375 -2.5625 C 5.628906 -2.382812 5.640625 -2.234375 5.640625 -2.109375 C 5.648438 -1.984375 5.671875 -1.878906 5.703125 -1.796875 C 5.710938 -1.753906 5.726562 -1.707031 5.75 -1.65625 C 5.769531 -1.613281 5.8125 -1.570312 5.875 -1.53125 C 5.976562 -1.457031 6.179688 -1.421875 6.484375 -1.421875 L 6.625 -1.421875 C 6.75 -1.421875 6.863281 -1.410156 6.96875 -1.390625 C 7.070312 -1.367188 7.175781 -1.316406 7.28125 -1.234375 C 7.46875 -1.085938 7.578125 -0.828125 7.609375 -0.453125 L 7.609375 -0.421875 C 7.609375 -0.171875 7.539062 0.046875 7.40625 0.234375 C 7.351562 0.304688 7.285156 0.375 7.203125 0.4375 C 7.117188 0.5 7.03125 0.539062 6.9375 0.5625 C 6.84375 0.59375 6.753906 0.609375 6.671875 0.609375 L 6.640625 0.609375 C 5.703125 0.566406 4.804688 0.546875 3.953125 0.546875 C 3.160156 0.546875 2.289062 0.566406 1.34375 0.609375 L 1.3125 0.609375 C 0.988281 0.609375 0.738281 0.484375 0.5625 0.234375 Z M 0.5625 0.234375 "/></g></g></g><g fill="#473500" fill-opacity="1"><g transform="translate(176.942184, 293.645148)"><g><path d="M 4.171875 0.125 C 3.046875 -0.457031 2.148438 -1.335938 1.484375 -2.515625 C 0.847656 -3.703125 0.53125 -5.132812 0.53125 -6.8125 C 0.53125 -8.394531 0.878906 -9.789062 1.578125 -11 C 2.273438 -12.21875 3.25 -13.160156 4.5 -13.828125 C 5.550781 -14.390625 6.722656 -14.710938 8.015625 -14.796875 C 8.097656 -14.796875 8.175781 -14.796875 8.25 -14.796875 C 8.332031 -14.804688 8.410156 -14.8125 8.484375 -14.8125 C 8.566406 -14.8125 8.644531 -14.8125 8.71875 -14.8125 C 9.507812 -14.8125 10.285156 -14.695312 11.046875 -14.46875 C 11.304688 -14.382812 11.554688 -14.285156 11.796875 -14.171875 C 12.046875 -14.066406 12.269531 -13.9375 12.46875 -13.78125 C 12.675781 -13.632812 12.875 -13.476562 13.0625 -13.3125 C 13.632812 -12.726562 13.921875 -12.019531 13.921875 -11.1875 C 13.921875 -10.988281 13.90625 -10.796875 13.875 -10.609375 C 13.84375 -10.429688 13.796875 -10.257812 13.734375 -10.09375 C 13.679688 -9.925781 13.609375 -9.765625 13.515625 -9.609375 C 13.429688 -9.453125 13.332031 -9.300781 13.21875 -9.15625 C 12.988281 -8.863281 12.707031 -8.640625 12.375 -8.484375 C 12.039062 -8.335938 11.679688 -8.265625 11.296875 -8.265625 C 11.160156 -8.265625 11.023438 -8.273438 10.890625 -8.296875 C 10.765625 -8.316406 10.640625 -8.347656 10.515625 -8.390625 C 10.390625 -8.441406 10.269531 -8.492188 10.15625 -8.546875 C 9.945312 -8.648438 9.769531 -8.789062 9.625 -8.96875 C 9.488281 -9.144531 9.414062 -9.34375 9.40625 -9.5625 L 9.40625 -9.609375 C 9.40625 -9.753906 9.425781 -9.875 9.46875 -9.96875 C 9.507812 -10.070312 9.5625 -10.132812 9.625 -10.15625 C 9.6875 -10.175781 9.75 -10.195312 9.8125 -10.21875 C 9.875 -10.25 9.914062 -10.269531 9.9375 -10.28125 C 9.976562 -10.3125 10.019531 -10.347656 10.0625 -10.390625 C 10.101562 -10.429688 10.148438 -10.476562 10.203125 -10.53125 C 10.253906 -10.59375 10.300781 -10.660156 10.34375 -10.734375 C 10.445312 -10.898438 10.5 -11.097656 10.5 -11.328125 C 10.5 -11.765625 10.332031 -12.117188 10 -12.390625 C 9.601562 -12.691406 9.09375 -12.84375 8.46875 -12.84375 C 8.34375 -12.84375 8.234375 -12.835938 8.140625 -12.828125 C 7.472656 -12.785156 6.863281 -12.570312 6.3125 -12.1875 C 6.15625 -12.070312 6.003906 -11.945312 5.859375 -11.8125 C 5.722656 -11.6875 5.585938 -11.535156 5.453125 -11.359375 C 5.328125 -11.191406 5.207031 -11.015625 5.09375 -10.828125 C 4.988281 -10.640625 4.882812 -10.4375 4.78125 -10.21875 C 4.59375 -9.757812 4.445312 -9.257812 4.34375 -8.71875 C 4.238281 -8.175781 4.1875 -7.585938 4.1875 -6.953125 C 4.1875 -5.722656 4.375 -4.671875 4.75 -3.796875 C 5.132812 -2.941406 5.65625 -2.289062 6.3125 -1.84375 C 6.53125 -1.695312 6.765625 -1.578125 7.015625 -1.484375 C 7.265625 -1.390625 7.523438 -1.316406 7.796875 -1.265625 C 8.066406 -1.210938 8.347656 -1.1875 8.640625 -1.1875 C 8.859375 -1.1875 9.0625 -1.191406 9.25 -1.203125 C 9.4375 -1.222656 9.613281 -1.238281 9.78125 -1.25 C 9.882812 -1.257812 9.992188 -1.28125 10.109375 -1.3125 C 10.234375 -1.34375 10.347656 -1.375 10.453125 -1.40625 L 10.453125 -3.21875 C 10.453125 -3.707031 10.4375 -4.035156 10.40625 -4.203125 C 10.40625 -4.222656 10.382812 -4.25 10.34375 -4.28125 C 10.226562 -4.332031 9.984375 -4.359375 9.609375 -4.359375 C 9.328125 -4.359375 9.101562 -4.414062 8.9375 -4.53125 C 8.71875 -4.675781 8.597656 -4.941406 8.578125 -5.328125 L 8.578125 -5.375 C 8.578125 -5.632812 8.65625 -5.867188 8.8125 -6.078125 C 9 -6.296875 9.253906 -6.40625 9.578125 -6.40625 L 9.609375 -6.40625 C 10.523438 -6.351562 11.316406 -6.328125 11.984375 -6.328125 C 12.203125 -6.328125 12.429688 -6.332031 12.671875 -6.34375 C 12.921875 -6.351562 13.179688 -6.359375 13.453125 -6.359375 C 13.734375 -6.367188 14.03125 -6.382812 14.34375 -6.40625 L 14.359375 -6.40625 C 14.660156 -6.40625 14.910156 -6.285156 15.109375 -6.046875 C 15.253906 -5.859375 15.328125 -5.632812 15.328125 -5.375 L 15.328125 -5.328125 C 15.328125 -5.242188 15.320312 -5.175781 15.3125 -5.125 C 15.300781 -5.082031 15.285156 -5.019531 15.265625 -4.9375 C 15.242188 -4.863281 15.207031 -4.789062 15.15625 -4.71875 C 15.101562 -4.65625 15.035156 -4.59375 14.953125 -4.53125 C 14.847656 -4.457031 14.742188 -4.410156 14.640625 -4.390625 C 14.535156 -4.367188 14.421875 -4.359375 14.296875 -4.359375 C 13.972656 -4.359375 13.753906 -4.332031 13.640625 -4.28125 C 13.578125 -4.226562 13.539062 -4.175781 13.53125 -4.125 C 13.53125 -4.082031 13.523438 -4.019531 13.515625 -3.9375 C 13.503906 -3.851562 13.492188 -3.75 13.484375 -3.625 C 13.484375 -3.5 13.484375 -3.363281 13.484375 -3.21875 L 13.484375 -0.28125 L 13.171875 -0.125 C 12.722656 0.0703125 12.289062 0.242188 11.875 0.390625 C 11.457031 0.535156 11.054688 0.65625 10.671875 0.75 C 10.515625 0.78125 10.347656 0.804688 10.171875 0.828125 C 9.515625 0.929688 8.75 0.984375 7.875 0.984375 C 6.507812 0.984375 5.273438 0.695312 4.171875 0.125 Z M 4.171875 0.125 "/></g></g></g><g fill="#473500" fill-opacity="1"><g transform="translate(196.623337, 293.645148)"><g><path d="M 0.59375 0.234375 C 0.519531 0.140625 0.46875 0.0390625 0.4375 -0.0625 C 0.40625 -0.175781 0.390625 -0.296875 0.390625 -0.421875 L 0.390625 -0.453125 C 0.390625 -0.453125 0.390625 -0.46875 0.390625 -0.5 C 0.421875 -0.882812 0.554688 -1.140625 0.796875 -1.265625 C 0.953125 -1.367188 1.179688 -1.421875 1.484375 -1.421875 C 1.796875 -1.421875 2.003906 -1.457031 2.109375 -1.53125 C 2.210938 -1.601562 2.269531 -1.691406 2.28125 -1.796875 C 2.320312 -1.984375 2.351562 -2.238281 2.375 -2.5625 L 2.375 -11.25 C 2.351562 -11.582031 2.320312 -11.835938 2.28125 -12.015625 C 2.269531 -12.117188 2.210938 -12.207031 2.109375 -12.28125 C 2.054688 -12.300781 1.976562 -12.328125 1.875 -12.359375 C 1.78125 -12.390625 1.648438 -12.40625 1.484375 -12.40625 L 1.359375 -12.40625 C 1.296875 -12.40625 1.242188 -12.410156 1.203125 -12.421875 C 1.160156 -12.429688 1.101562 -12.4375 1.03125 -12.4375 C 0.96875 -12.445312 0.90625 -12.46875 0.84375 -12.5 C 0.789062 -12.53125 0.742188 -12.570312 0.703125 -12.625 C 0.671875 -12.644531 0.640625 -12.664062 0.609375 -12.6875 C 0.578125 -12.71875 0.554688 -12.742188 0.546875 -12.765625 C 0.535156 -12.785156 0.519531 -12.8125 0.5 -12.84375 C 0.488281 -12.875 0.476562 -12.898438 0.46875 -12.921875 C 0.457031 -12.941406 0.445312 -12.96875 0.4375 -13 C 0.4375 -13.039062 0.429688 -13.066406 0.421875 -13.078125 C 0.421875 -13.097656 0.421875 -13.125 0.421875 -13.15625 C 0.421875 -13.195312 0.414062 -13.222656 0.40625 -13.234375 C 0.394531 -13.253906 0.390625 -13.273438 0.390625 -13.296875 C 0.390625 -13.328125 0.390625 -13.351562 0.390625 -13.375 L 0.390625 -13.421875 C 0.410156 -13.660156 0.476562 -13.878906 0.59375 -14.078125 C 0.644531 -14.148438 0.710938 -14.210938 0.796875 -14.265625 C 0.878906 -14.328125 0.96875 -14.375 1.0625 -14.40625 C 1.15625 -14.4375 1.25 -14.453125 1.34375 -14.453125 L 1.359375 -14.453125 C 1.828125 -14.421875 2.273438 -14.398438 2.703125 -14.390625 C 3.140625 -14.378906 3.554688 -14.375 3.953125 -14.375 L 7.71875 -14.375 C 8.925781 -14.363281 9.941406 -14.164062 10.765625 -13.78125 C 10.921875 -13.707031 11.070312 -13.628906 11.21875 -13.546875 C 11.363281 -13.472656 11.503906 -13.382812 11.640625 -13.28125 C 11.785156 -13.175781 11.914062 -13.070312 12.03125 -12.96875 C 12.144531 -12.875 12.253906 -12.765625 12.359375 -12.640625 C 12.460938 -12.523438 12.5625 -12.40625 12.65625 -12.28125 C 13.0625 -11.644531 13.265625 -10.972656 13.265625 -10.265625 C 13.265625 -9.796875 13.164062 -9.34375 12.96875 -8.90625 C 12.78125 -8.46875 12.515625 -8.054688 12.171875 -7.671875 C 12.023438 -7.523438 11.863281 -7.378906 11.6875 -7.234375 C 11.519531 -7.097656 11.34375 -6.972656 11.15625 -6.859375 C 10.976562 -6.742188 10.796875 -6.640625 10.609375 -6.546875 C 10.421875 -6.453125 10.21875 -6.367188 10 -6.296875 C 10.613281 -5.296875 11.160156 -4.453125 11.640625 -3.765625 C 12.117188 -3.097656 12.640625 -2.460938 13.203125 -1.859375 C 13.359375 -1.734375 13.515625 -1.632812 13.671875 -1.5625 C 13.835938 -1.5 14.007812 -1.453125 14.1875 -1.421875 C 14.226562 -1.421875 14.289062 -1.414062 14.375 -1.40625 C 14.625 -1.382812 14.832031 -1.289062 15 -1.125 C 15.082031 -1.019531 15.140625 -0.90625 15.171875 -0.78125 C 15.210938 -0.664062 15.234375 -0.546875 15.234375 -0.421875 C 15.234375 -0.171875 15.164062 0.046875 15.03125 0.234375 C 15.007812 0.265625 14.984375 0.296875 14.953125 0.328125 C 14.921875 0.359375 14.890625 0.382812 14.859375 0.40625 C 14.828125 0.4375 14.789062 0.460938 14.75 0.484375 C 14.71875 0.515625 14.679688 0.535156 14.640625 0.546875 C 14.609375 0.554688 14.570312 0.566406 14.53125 0.578125 C 14.488281 0.585938 14.445312 0.59375 14.40625 0.59375 C 14.363281 0.601562 14.328125 0.609375 14.296875 0.609375 L 13.703125 0.59375 C 13.054688 0.5625 12.59375 0.546875 12.3125 0.546875 L 12.203125 0.546875 C 11.546875 0.398438 10.976562 0.160156 10.5 -0.171875 C 10.34375 -0.285156 10.1875 -0.414062 10.03125 -0.5625 C 9.875 -0.71875 9.722656 -0.878906 9.578125 -1.046875 C 9.429688 -1.210938 9.285156 -1.390625 9.140625 -1.578125 C 8.703125 -2.148438 8.101562 -3.070312 7.34375 -4.34375 L 6.953125 -4.96875 C 6.910156 -5.03125 6.867188 -5.085938 6.828125 -5.140625 C 6.796875 -5.191406 6.765625 -5.234375 6.734375 -5.265625 C 6.703125 -5.304688 6.671875 -5.34375 6.640625 -5.375 C 6.609375 -5.40625 6.578125 -5.425781 6.546875 -5.4375 C 6.523438 -5.445312 6.503906 -5.460938 6.484375 -5.484375 C 6.367188 -5.554688 6.113281 -5.59375 5.71875 -5.59375 L 5.640625 -5.59375 L 5.640625 -2.5625 C 5.648438 -2.382812 5.65625 -2.234375 5.65625 -2.109375 C 5.664062 -1.984375 5.6875 -1.878906 5.71875 -1.796875 C 5.738281 -1.753906 5.757812 -1.707031 5.78125 -1.65625 C 5.800781 -1.613281 5.835938 -1.570312 5.890625 -1.53125 C 5.992188 -1.457031 6.203125 -1.421875 6.515625 -1.421875 L 6.640625 -1.421875 C 6.753906 -1.421875 6.863281 -1.40625 6.96875 -1.375 C 7.070312 -1.351562 7.175781 -1.304688 7.28125 -1.234375 C 7.46875 -1.085938 7.578125 -0.828125 7.609375 -0.453125 L 7.609375 -0.421875 C 7.609375 -0.171875 7.539062 0.046875 7.40625 0.234375 C 7.351562 0.304688 7.285156 0.375 7.203125 0.4375 C 7.117188 0.5 7.03125 0.539062 6.9375 0.5625 C 6.84375 0.59375 6.753906 0.609375 6.671875 0.609375 L 6.640625 0.609375 C 5.703125 0.566406 4.796875 0.546875 3.921875 0.546875 C 3.160156 0.546875 2.304688 0.566406 1.359375 0.609375 L 1.34375 0.609375 C 1.019531 0.609375 0.769531 0.484375 0.59375 0.234375 Z M 7.015625 -7.546875 C 7.984375 -7.546875 8.675781 -7.738281 9.09375 -8.125 C 9.519531 -8.519531 9.734375 -9.164062 9.734375 -10.0625 C 9.734375 -10.75 9.503906 -11.320312 9.046875 -11.78125 C 8.585938 -12.238281 7.78125 -12.46875 6.625 -12.46875 C 6.28125 -12.46875 6.035156 -12.429688 5.890625 -12.359375 C 5.804688 -12.328125 5.75 -12.265625 5.71875 -12.171875 C 5.6875 -12.097656 5.664062 -11.972656 5.65625 -11.796875 C 5.644531 -11.617188 5.640625 -11.421875 5.640625 -11.203125 L 5.640625 -7.546875 Z M 7.015625 -7.546875 "/></g></g></g><g fill="#473500" fill-opacity="1"><g transform="translate(215.844289, 293.645148)"><g><path d="M -0.609375 0.234375 C -0.742188 0.046875 -0.8125 -0.171875 -0.8125 -0.421875 L -0.8125 -0.453125 C -0.8125 -0.453125 -0.8125 -0.46875 -0.8125 -0.5 C -0.78125 -0.882812 -0.648438 -1.140625 -0.421875 -1.265625 C -0.253906 -1.367188 -0.0703125 -1.421875 0.125 -1.421875 L 0.328125 -1.421875 C 0.609375 -1.421875 0.789062 -1.472656 0.875 -1.578125 C 1.050781 -1.765625 1.191406 -1.96875 1.296875 -2.1875 C 1.304688 -2.25 1.320312 -2.300781 1.34375 -2.34375 C 1.363281 -2.382812 1.378906 -2.421875 1.390625 -2.453125 C 1.410156 -2.492188 1.425781 -2.53125 1.4375 -2.5625 C 1.457031 -2.59375 1.46875 -2.625 1.46875 -2.65625 C 1.476562 -2.6875 1.488281 -2.710938 1.5 -2.734375 C 1.519531 -2.753906 1.53125 -2.769531 1.53125 -2.78125 L 2.0625 -4.03125 L 5.375 -11.859375 C 5.425781 -12.003906 5.453125 -12.109375 5.453125 -12.171875 L 5.4375 -12.25 C 5.28125 -12.34375 5.046875 -12.414062 4.734375 -12.46875 C 4.410156 -12.53125 4.1875 -12.613281 4.0625 -12.71875 C 3.851562 -12.875 3.75 -13.140625 3.75 -13.515625 C 3.75 -13.898438 3.878906 -14.175781 4.140625 -14.34375 C 4.328125 -14.457031 4.578125 -14.515625 4.890625 -14.515625 C 5.148438 -14.515625 5.390625 -14.503906 5.609375 -14.484375 C 5.828125 -14.472656 6.03125 -14.457031 6.21875 -14.4375 C 6.414062 -14.414062 6.601562 -14.382812 6.78125 -14.34375 C 7.300781 -14.195312 7.757812 -13.925781 8.15625 -13.53125 C 8.519531 -13.144531 8.851562 -12.582031 9.15625 -11.84375 L 12.84375 -2.765625 C 13.050781 -2.253906 13.242188 -1.878906 13.421875 -1.640625 C 13.472656 -1.566406 13.535156 -1.507812 13.609375 -1.46875 C 13.679688 -1.4375 13.78125 -1.421875 13.90625 -1.421875 L 14.03125 -1.421875 C 14.3125 -1.421875 14.53125 -1.347656 14.6875 -1.203125 C 14.71875 -1.191406 14.742188 -1.171875 14.765625 -1.140625 C 14.796875 -1.109375 14.816406 -1.082031 14.828125 -1.0625 C 14.847656 -1.039062 14.863281 -1.015625 14.875 -0.984375 C 14.894531 -0.953125 14.90625 -0.925781 14.90625 -0.90625 C 14.914062 -0.882812 14.925781 -0.851562 14.9375 -0.8125 C 14.945312 -0.78125 14.953125 -0.753906 14.953125 -0.734375 C 14.960938 -0.722656 14.96875 -0.695312 14.96875 -0.65625 C 14.96875 -0.625 14.972656 -0.597656 14.984375 -0.578125 C 14.992188 -0.566406 15 -0.546875 15 -0.515625 C 15 -0.492188 15 -0.472656 15 -0.453125 L 15 -0.421875 C 15 -0.171875 14.929688 0.046875 14.796875 0.234375 C 14.734375 0.304688 14.660156 0.375 14.578125 0.4375 C 14.503906 0.5 14.421875 0.539062 14.328125 0.5625 C 14.234375 0.59375 14.140625 0.609375 14.046875 0.609375 L 14.03125 0.609375 C 13.09375 0.566406 12.296875 0.546875 11.640625 0.546875 C 10.773438 0.546875 9.875 0.566406 8.9375 0.609375 L 8.921875 0.609375 C 8.835938 0.609375 8.742188 0.59375 8.640625 0.5625 C 8.546875 0.539062 8.457031 0.5 8.375 0.4375 C 8.300781 0.375 8.234375 0.304688 8.171875 0.234375 C 8.097656 0.140625 8.046875 0.0390625 8.015625 -0.0625 C 7.992188 -0.175781 7.984375 -0.296875 7.984375 -0.421875 L 7.984375 -0.453125 C 8.003906 -0.804688 8.101562 -1.054688 8.28125 -1.203125 C 8.445312 -1.347656 8.664062 -1.421875 8.9375 -1.421875 C 9.332031 -1.421875 9.601562 -1.453125 9.75 -1.515625 C 9.75 -1.523438 9.75 -1.53125 9.75 -1.53125 C 9.75 -1.550781 9.742188 -1.597656 9.734375 -1.671875 C 9.722656 -1.742188 9.695312 -1.84375 9.65625 -1.96875 C 9.625 -2.101562 9.582031 -2.238281 9.53125 -2.375 L 8.921875 -3.84375 L 4.25 -3.84375 C 4.101562 -3.488281 3.992188 -3.207031 3.921875 -3 C 3.835938 -2.8125 3.785156 -2.6875 3.765625 -2.625 C 3.753906 -2.601562 3.742188 -2.5625 3.734375 -2.5 C 3.734375 -2.46875 3.726562 -2.441406 3.71875 -2.421875 C 3.707031 -2.410156 3.703125 -2.398438 3.703125 -2.390625 C 3.628906 -2.179688 3.570312 -1.992188 3.53125 -1.828125 C 3.488281 -1.660156 3.46875 -1.554688 3.46875 -1.515625 C 3.65625 -1.453125 4 -1.421875 4.5 -1.421875 L 4.625 -1.421875 C 4.90625 -1.421875 5.125 -1.347656 5.28125 -1.203125 C 5.457031 -1.054688 5.5625 -0.804688 5.59375 -0.453125 L 5.59375 -0.421875 C 5.59375 -0.171875 5.523438 0.046875 5.390625 0.234375 C 5.304688 0.359375 5.195312 0.453125 5.0625 0.515625 C 4.925781 0.578125 4.785156 0.609375 4.640625 0.609375 L 4.625 0.609375 C 4.15625 0.578125 3.722656 0.554688 3.328125 0.546875 C 2.929688 0.546875 2.578125 0.546875 2.265625 0.546875 C 1.804688 0.546875 1.101562 0.566406 0.15625 0.609375 L 0.125 0.609375 C -0.1875 0.609375 -0.429688 0.484375 -0.609375 0.234375 Z M 5.109375 -5.875 L 8.09375 -5.875 L 6.640625 -9.578125 Z M 5.109375 -5.875 "/></g></g></g><g fill="#473500" fill-opacity="1"><g transform="translate(234.670783, 293.645148)"><g><path d="M 0.59375 0.265625 C 0.445312 0.078125 0.375 -0.148438 0.375 -0.421875 L 0.375 -0.453125 C 0.40625 -0.867188 0.550781 -1.148438 0.8125 -1.296875 C 0.96875 -1.378906 1.191406 -1.421875 1.484375 -1.421875 C 1.796875 -1.421875 2.003906 -1.457031 2.109375 -1.53125 C 2.210938 -1.601562 2.269531 -1.691406 2.28125 -1.796875 C 2.320312 -1.984375 2.351562 -2.238281 2.375 -2.5625 L 2.375 -11.265625 C 2.351562 -11.585938 2.320312 -11.84375 2.28125 -12.03125 C 2.28125 -12.0625 2.269531 -12.09375 2.25 -12.125 C 2.238281 -12.15625 2.222656 -12.179688 2.203125 -12.203125 C 2.179688 -12.234375 2.148438 -12.257812 2.109375 -12.28125 C 2.003906 -12.363281 1.796875 -12.40625 1.484375 -12.40625 L 1.359375 -12.40625 C 1.078125 -12.40625 0.859375 -12.472656 0.703125 -12.609375 C 0.609375 -12.679688 0.535156 -12.769531 0.484375 -12.875 C 0.441406 -12.988281 0.414062 -13.070312 0.40625 -13.125 C 0.394531 -13.175781 0.382812 -13.257812 0.375 -13.375 L 0.375 -13.421875 C 0.375 -13.679688 0.445312 -13.90625 0.59375 -14.09375 C 0.78125 -14.332031 1.019531 -14.453125 1.3125 -14.453125 L 1.34375 -14.453125 C 1.65625 -14.429688 1.957031 -14.414062 2.25 -14.40625 C 2.550781 -14.40625 2.84375 -14.398438 3.125 -14.390625 C 3.40625 -14.378906 3.679688 -14.375 3.953125 -14.375 L 7.234375 -14.375 C 8.578125 -14.375 9.882812 -14.097656 11.15625 -13.546875 C 11.84375 -13.242188 12.363281 -12.773438 12.71875 -12.140625 C 13.082031 -11.515625 13.265625 -10.765625 13.265625 -9.890625 C 13.265625 -8.890625 12.960938 -8 12.359375 -7.21875 C 11.773438 -6.457031 11.023438 -5.863281 10.109375 -5.4375 C 9.179688 -5.03125 8.226562 -4.828125 7.25 -4.828125 C 6.664062 -4.828125 6.117188 -4.882812 5.609375 -5 L 5.609375 -2.5625 C 5.628906 -2.382812 5.640625 -2.234375 5.640625 -2.109375 C 5.648438 -1.984375 5.671875 -1.878906 5.703125 -1.796875 C 5.710938 -1.753906 5.726562 -1.707031 5.75 -1.65625 C 5.769531 -1.613281 5.8125 -1.570312 5.875 -1.53125 C 5.976562 -1.457031 6.179688 -1.421875 6.484375 -1.421875 L 6.625 -1.421875 C 6.75 -1.421875 6.863281 -1.410156 6.96875 -1.390625 C 7.070312 -1.367188 7.175781 -1.316406 7.28125 -1.234375 C 7.46875 -1.085938 7.578125 -0.828125 7.609375 -0.453125 L 7.609375 -0.421875 C 7.609375 -0.171875 7.539062 0.046875 7.40625 0.234375 C 7.351562 0.304688 7.285156 0.375 7.203125 0.4375 C 7.117188 0.5 7.03125 0.539062 6.9375 0.5625 C 6.84375 0.59375 6.753906 0.609375 6.671875 0.609375 L 6.640625 0.609375 C 5.703125 0.566406 4.796875 0.546875 3.921875 0.546875 C 3.148438 0.546875 2.289062 0.566406 1.34375 0.609375 L 1.3125 0.609375 C 1.019531 0.609375 0.78125 0.492188 0.59375 0.265625 Z M 8.0625 -7.1875 C 8.207031 -7.25 8.347656 -7.320312 8.484375 -7.40625 C 8.628906 -7.5 8.765625 -7.597656 8.890625 -7.703125 C 9.015625 -7.816406 9.132812 -7.953125 9.25 -8.109375 C 9.40625 -8.316406 9.523438 -8.554688 9.609375 -8.828125 C 9.691406 -9.109375 9.734375 -9.441406 9.734375 -9.828125 C 9.734375 -10.890625 9.425781 -11.582031 8.8125 -11.90625 C 8.0625 -12.28125 7.269531 -12.46875 6.4375 -12.46875 C 6.28125 -12.46875 6.144531 -12.460938 6.03125 -12.453125 C 5.925781 -12.441406 5.851562 -12.421875 5.8125 -12.390625 C 5.769531 -12.367188 5.734375 -12.320312 5.703125 -12.25 C 5.640625 -12.070312 5.609375 -11.765625 5.609375 -11.328125 L 5.609375 -7 C 5.867188 -6.9375 6.207031 -6.90625 6.625 -6.90625 C 7.070312 -6.90625 7.550781 -7 8.0625 -7.1875 Z M 8.0625 -7.1875 "/></g></g></g><g fill="#473500" fill-opacity="1"><g transform="translate(252.423476, 293.645148)"><g><path d="M 0.59375 0.234375 C 0.519531 0.140625 0.46875 0.0390625 0.4375 -0.0625 C 0.40625 -0.175781 0.390625 -0.296875 0.390625 -0.421875 L 0.390625 -0.453125 C 0.390625 -0.453125 0.390625 -0.46875 0.390625 -0.5 C 0.421875 -0.882812 0.554688 -1.140625 0.796875 -1.265625 C 0.953125 -1.367188 1.179688 -1.421875 1.484375 -1.421875 C 1.796875 -1.421875 2.003906 -1.457031 2.109375 -1.53125 C 2.210938 -1.601562 2.269531 -1.691406 2.28125 -1.796875 C 2.320312 -1.984375 2.351562 -2.238281 2.375 -2.5625 L 2.375 -11.265625 C 2.351562 -11.585938 2.320312 -11.84375 2.28125 -12.03125 C 2.28125 -12.0625 2.269531 -12.09375 2.25 -12.125 C 2.238281 -12.15625 2.222656 -12.179688 2.203125 -12.203125 C 2.179688 -12.234375 2.148438 -12.257812 2.109375 -12.28125 C 2.003906 -12.363281 1.796875 -12.40625 1.484375 -12.40625 L 1.359375 -12.40625 C 1.296875 -12.40625 1.242188 -12.410156 1.203125 -12.421875 C 1.160156 -12.429688 1.101562 -12.4375 1.03125 -12.4375 C 0.96875 -12.445312 0.90625 -12.46875 0.84375 -12.5 C 0.789062 -12.53125 0.742188 -12.570312 0.703125 -12.625 C 0.671875 -12.644531 0.640625 -12.664062 0.609375 -12.6875 C 0.578125 -12.71875 0.554688 -12.742188 0.546875 -12.765625 C 0.535156 -12.785156 0.519531 -12.8125 0.5 -12.84375 C 0.488281 -12.875 0.476562 -12.898438 0.46875 -12.921875 C 0.457031 -12.941406 0.445312 -12.96875 0.4375 -13 C 0.4375 -13.039062 0.429688 -13.066406 0.421875 -13.078125 C 0.421875 -13.097656 0.421875 -13.125 0.421875 -13.15625 C 0.421875 -13.195312 0.414062 -13.222656 0.40625 -13.234375 C 0.394531 -13.253906 0.390625 -13.273438 0.390625 -13.296875 C 0.390625 -13.328125 0.390625 -13.351562 0.390625 -13.375 L 0.390625 -13.421875 C 0.410156 -13.660156 0.476562 -13.878906 0.59375 -14.078125 C 0.644531 -14.148438 0.710938 -14.210938 0.796875 -14.265625 C 0.878906 -14.328125 0.96875 -14.375 1.0625 -14.40625 C 1.15625 -14.4375 1.25 -14.453125 1.34375 -14.453125 L 1.359375 -14.453125 C 1.828125 -14.421875 2.273438 -14.398438 2.703125 -14.390625 C 3.140625 -14.378906 3.546875 -14.375 3.921875 -14.375 C 4.785156 -14.375 5.691406 -14.398438 6.640625 -14.453125 L 6.671875 -14.453125 C 6.753906 -14.453125 6.84375 -14.4375 6.9375 -14.40625 C 7.03125 -14.375 7.117188 -14.328125 7.203125 -14.265625 C 7.285156 -14.210938 7.351562 -14.148438 7.40625 -14.078125 C 7.476562 -13.972656 7.53125 -13.863281 7.5625 -13.75 C 7.59375 -13.644531 7.609375 -13.535156 7.609375 -13.421875 L 7.609375 -13.375 C 7.578125 -12.96875 7.445312 -12.695312 7.21875 -12.5625 C 7.144531 -12.5 7.054688 -12.457031 6.953125 -12.4375 C 6.859375 -12.414062 6.785156 -12.40625 6.734375 -12.40625 C 6.691406 -12.40625 6.617188 -12.40625 6.515625 -12.40625 C 6.203125 -12.40625 5.992188 -12.363281 5.890625 -12.28125 C 5.796875 -12.21875 5.738281 -12.132812 5.71875 -12.03125 C 5.675781 -11.84375 5.648438 -11.585938 5.640625 -11.265625 L 5.640625 -7.9375 L 11.421875 -7.9375 L 11.421875 -11.265625 C 11.421875 -11.328125 11.414062 -11.390625 11.40625 -11.453125 C 11.40625 -11.515625 11.40625 -11.570312 11.40625 -11.625 C 11.40625 -11.675781 11.398438 -11.726562 11.390625 -11.78125 C 11.378906 -11.832031 11.367188 -11.875 11.359375 -11.90625 C 11.359375 -11.945312 11.347656 -11.988281 11.328125 -12.03125 C 11.316406 -12.070312 11.300781 -12.113281 11.28125 -12.15625 C 11.257812 -12.207031 11.21875 -12.25 11.15625 -12.28125 C 11.050781 -12.363281 10.847656 -12.40625 10.546875 -12.40625 L 10.40625 -12.40625 C 10.28125 -12.40625 10.164062 -12.414062 10.0625 -12.4375 C 9.957031 -12.457031 9.851562 -12.515625 9.75 -12.609375 C 9.664062 -12.679688 9.597656 -12.769531 9.546875 -12.875 C 9.492188 -12.988281 9.460938 -13.070312 9.453125 -13.125 C 9.453125 -13.175781 9.441406 -13.257812 9.421875 -13.375 L 9.421875 -13.421875 C 9.421875 -13.679688 9.492188 -13.90625 9.640625 -14.09375 C 9.835938 -14.332031 10.082031 -14.453125 10.375 -14.453125 L 10.390625 -14.453125 C 10.859375 -14.421875 11.316406 -14.398438 11.765625 -14.390625 C 12.222656 -14.378906 12.671875 -14.375 13.109375 -14.375 C 13.265625 -14.375 13.421875 -14.375 13.578125 -14.375 C 13.742188 -14.375 13.914062 -14.378906 14.09375 -14.390625 C 14.269531 -14.398438 14.441406 -14.40625 14.609375 -14.40625 C 14.773438 -14.40625 14.945312 -14.40625 15.125 -14.40625 C 15.3125 -14.414062 15.503906 -14.429688 15.703125 -14.453125 L 15.71875 -14.453125 C 16.039062 -14.453125 16.289062 -14.328125 16.46875 -14.078125 C 16.59375 -13.878906 16.65625 -13.660156 16.65625 -13.421875 L 16.65625 -13.375 C 16.625 -12.96875 16.476562 -12.691406 16.21875 -12.546875 C 16.113281 -12.484375 16.015625 -12.441406 15.921875 -12.421875 C 15.828125 -12.410156 15.707031 -12.40625 15.5625 -12.40625 C 15.445312 -12.40625 15.34375 -12.394531 15.25 -12.375 C 15.164062 -12.363281 15.097656 -12.347656 15.046875 -12.328125 C 14.992188 -12.316406 14.953125 -12.300781 14.921875 -12.28125 C 14.878906 -12.25 14.847656 -12.21875 14.828125 -12.1875 C 14.804688 -12.15625 14.785156 -12.128906 14.765625 -12.109375 C 14.753906 -12.085938 14.75 -12.0625 14.75 -12.03125 C 14.707031 -11.84375 14.679688 -11.585938 14.671875 -11.265625 L 14.671875 -2.5625 C 14.671875 -2.507812 14.671875 -2.445312 14.671875 -2.375 C 14.679688 -2.3125 14.6875 -2.253906 14.6875 -2.203125 C 14.6875 -2.148438 14.6875 -2.097656 14.6875 -2.046875 C 14.695312 -1.992188 14.707031 -1.945312 14.71875 -1.90625 C 14.726562 -1.875 14.738281 -1.835938 14.75 -1.796875 C 14.769531 -1.710938 14.828125 -1.632812 14.921875 -1.5625 C 15.046875 -1.46875 15.257812 -1.421875 15.5625 -1.421875 L 15.703125 -1.421875 C 15.960938 -1.421875 16.171875 -1.359375 16.328125 -1.234375 C 16.515625 -1.085938 16.625 -0.828125 16.65625 -0.453125 L 16.65625 -0.421875 C 16.65625 -0.171875 16.59375 0.046875 16.46875 0.234375 C 16.40625 0.304688 16.332031 0.375 16.25 0.4375 C 16.175781 0.5 16.085938 0.539062 15.984375 0.5625 C 15.890625 0.59375 15.800781 0.609375 15.71875 0.609375 L 15.703125 0.609375 C 14.765625 0.566406 13.894531 0.546875 13.09375 0.546875 C 12.238281 0.546875 11.335938 0.566406 10.390625 0.609375 L 10.375 0.609375 C 10.082031 0.609375 9.835938 0.492188 9.640625 0.265625 C 9.492188 0.078125 9.421875 -0.148438 9.421875 -0.421875 L 9.421875 -0.453125 C 9.453125 -0.867188 9.597656 -1.148438 9.859375 -1.296875 C 9.960938 -1.347656 10.066406 -1.378906 10.171875 -1.390625 C 10.273438 -1.410156 10.398438 -1.421875 10.546875 -1.421875 C 10.847656 -1.421875 11.050781 -1.457031 11.15625 -1.53125 C 11.257812 -1.601562 11.316406 -1.691406 11.328125 -1.796875 C 11.378906 -1.984375 11.410156 -2.238281 11.421875 -2.5625 L 11.421875 -5.890625 L 5.640625 -5.890625 L 5.640625 -2.5625 C 5.648438 -2.382812 5.65625 -2.234375 5.65625 -2.109375 C 5.664062 -1.984375 5.6875 -1.878906 5.71875 -1.796875 C 5.738281 -1.753906 5.757812 -1.707031 5.78125 -1.65625 C 5.800781 -1.613281 5.835938 -1.570312 5.890625 -1.53125 C 5.992188 -1.457031 6.203125 -1.421875 6.515625 -1.421875 L 6.640625 -1.421875 C 6.921875 -1.421875 7.140625 -1.347656 7.296875 -1.203125 C 7.472656 -1.054688 7.578125 -0.804688 7.609375 -0.453125 L 7.609375 -0.421875 C 7.609375 -0.171875 7.539062 0.046875 7.40625 0.234375 C 7.351562 0.304688 7.285156 0.375 7.203125 0.4375 C 7.117188 0.5 7.03125 0.539062 6.9375 0.5625 C 6.84375 0.59375 6.753906 0.609375 6.671875 0.609375 L 6.640625 0.609375 C 5.703125 0.566406 4.804688 0.546875 3.953125 0.546875 C 3.171875 0.546875 2.304688 0.566406 1.359375 0.609375 L 1.34375 0.609375 C 1.019531 0.609375 0.769531 0.484375 0.59375 0.234375 Z M 0.59375 0.234375 "/></g></g></g><g fill="#473500" fill-opacity="1"><g transform="translate(273.967347, 293.645148)"><g><path d="M 3.421875 0.234375 C 3.285156 0.046875 3.21875 -0.171875 3.21875 -0.421875 L 3.21875 -0.453125 C 3.25 -0.867188 3.394531 -1.148438 3.65625 -1.296875 C 3.820312 -1.378906 4.039062 -1.421875 4.3125 -1.421875 C 4.625 -1.421875 4.832031 -1.457031 4.9375 -1.53125 C 4.988281 -1.570312 5.023438 -1.613281 5.046875 -1.65625 C 5.066406 -1.707031 5.085938 -1.753906 5.109375 -1.796875 C 5.117188 -1.835938 5.128906 -1.882812 5.140625 -1.9375 C 5.148438 -2 5.15625 -2.0625 5.15625 -2.125 C 5.164062 -2.195312 5.175781 -2.269531 5.1875 -2.34375 C 5.195312 -2.414062 5.203125 -2.488281 5.203125 -2.5625 L 5.203125 -5.28125 C 5.140625 -5.5625 4.796875 -6.335938 4.171875 -7.609375 C 3.453125 -9.066406 2.863281 -10.207031 2.40625 -11.03125 C 2.15625 -11.476562 1.890625 -11.804688 1.609375 -12.015625 C 1.328125 -12.234375 0.96875 -12.378906 0.53125 -12.453125 L 0.53125 -12.46875 L 0.5 -12.46875 C 0.488281 -12.46875 0.472656 -12.472656 0.453125 -12.484375 C 0.429688 -12.492188 0.40625 -12.5 0.375 -12.5 C 0.34375 -12.5 0.304688 -12.503906 0.265625 -12.515625 C -0.015625 -12.578125 -0.210938 -12.707031 -0.328125 -12.90625 C -0.390625 -13.007812 -0.425781 -13.101562 -0.4375 -13.1875 C -0.445312 -13.28125 -0.453125 -13.382812 -0.453125 -13.5 C -0.453125 -13.882812 -0.320312 -14.15625 -0.0625 -14.3125 C 0.125 -14.425781 0.367188 -14.484375 0.671875 -14.484375 C 1.929688 -14.484375 2.925781 -14.3125 3.65625 -13.96875 C 4.414062 -13.601562 5.082031 -12.921875 5.65625 -11.921875 L 5.65625 -11.90625 C 5.90625 -11.425781 6.25 -10.734375 6.6875 -9.828125 C 6.800781 -9.617188 6.90625 -9.414062 7 -9.21875 C 7.09375 -9.019531 7.179688 -8.835938 7.265625 -8.671875 C 7.359375 -8.503906 7.4375 -8.351562 7.5 -8.21875 L 8.21875 -9.625 L 9.46875 -12.125 C 9.507812 -12.226562 9.546875 -12.316406 9.578125 -12.390625 C 9.429688 -12.398438 9.242188 -12.40625 9.015625 -12.40625 L 8.875 -12.40625 C 8.601562 -12.40625 8.382812 -12.476562 8.21875 -12.625 C 8.132812 -12.695312 8.066406 -12.785156 8.015625 -12.890625 C 7.960938 -13.003906 7.9375 -13.078125 7.9375 -13.109375 C 7.9375 -13.148438 7.925781 -13.238281 7.90625 -13.375 L 7.90625 -13.421875 C 7.90625 -13.460938 7.90625 -13.5 7.90625 -13.53125 C 7.90625 -13.570312 7.910156 -13.609375 7.921875 -13.640625 C 7.929688 -13.679688 7.941406 -13.71875 7.953125 -13.75 C 7.972656 -13.789062 7.988281 -13.828125 8 -13.859375 C 8.007812 -13.898438 8.019531 -13.9375 8.03125 -13.96875 C 8.050781 -14.007812 8.078125 -14.046875 8.109375 -14.078125 C 8.148438 -14.128906 8.195312 -14.175781 8.25 -14.21875 C 8.300781 -14.269531 8.359375 -14.3125 8.421875 -14.34375 C 8.492188 -14.382812 8.5625 -14.410156 8.625 -14.421875 C 8.6875 -14.441406 8.753906 -14.453125 8.828125 -14.453125 L 8.859375 -14.453125 C 9.328125 -14.421875 9.753906 -14.398438 10.140625 -14.390625 C 10.535156 -14.378906 10.894531 -14.375 11.21875 -14.375 C 11.488281 -14.375 11.804688 -14.378906 12.171875 -14.390625 C 12.535156 -14.398438 12.953125 -14.421875 13.421875 -14.453125 L 13.4375 -14.453125 C 13.757812 -14.453125 14.007812 -14.328125 14.1875 -14.078125 C 14.3125 -13.878906 14.375 -13.660156 14.375 -13.421875 L 14.375 -13.375 C 14.351562 -13.019531 14.253906 -12.769531 14.078125 -12.625 C 13.910156 -12.476562 13.691406 -12.40625 13.421875 -12.40625 C 13.148438 -12.40625 12.921875 -12.382812 12.734375 -12.34375 C 12.546875 -12.300781 12.382812 -12.238281 12.25 -12.15625 C 12.125 -12.070312 11.992188 -11.945312 11.859375 -11.78125 C 11.722656 -11.625 11.59375 -11.429688 11.46875 -11.203125 L 10.109375 -8.65625 L 8.984375 -6.546875 C 8.972656 -6.492188 8.941406 -6.425781 8.890625 -6.34375 C 8.847656 -6.257812 8.789062 -6.15625 8.71875 -6.03125 C 8.695312 -5.9375 8.671875 -5.851562 8.640625 -5.78125 C 8.609375 -5.707031 8.582031 -5.640625 8.5625 -5.578125 C 8.539062 -5.523438 8.53125 -5.472656 8.53125 -5.421875 C 8.5 -5.316406 8.476562 -5.203125 8.46875 -5.078125 C 8.46875 -4.960938 8.46875 -4.832031 8.46875 -4.6875 L 8.46875 -2.5625 C 8.476562 -2.382812 8.484375 -2.234375 8.484375 -2.109375 C 8.492188 -1.984375 8.515625 -1.878906 8.546875 -1.796875 C 8.566406 -1.753906 8.585938 -1.707031 8.609375 -1.65625 C 8.628906 -1.613281 8.664062 -1.570312 8.71875 -1.53125 C 8.820312 -1.457031 9.03125 -1.421875 9.34375 -1.421875 L 9.46875 -1.421875 C 9.75 -1.421875 9.96875 -1.347656 10.125 -1.203125 C 10.300781 -1.054688 10.40625 -0.804688 10.4375 -0.453125 L 10.4375 -0.421875 C 10.4375 -0.171875 10.367188 0.046875 10.234375 0.234375 C 10.160156 0.359375 10.054688 0.453125 9.921875 0.515625 C 9.796875 0.578125 9.660156 0.609375 9.515625 0.609375 L 9.484375 0.609375 C 9.179688 0.597656 8.878906 0.585938 8.578125 0.578125 C 8.285156 0.566406 7.992188 0.554688 7.703125 0.546875 C 7.421875 0.546875 7.148438 0.546875 6.890625 0.546875 C 6.035156 0.546875 5.132812 0.566406 4.1875 0.609375 L 4.171875 0.609375 C 3.847656 0.609375 3.597656 0.484375 3.421875 0.234375 Z M 3.421875 0.234375 "/></g></g></g></svg>